<svg width="1920" height="1080" viewBox="0 0 1920 1080" fill="none" xmlns="http://www.w3.org/2000/svg">
<rect width="1920" height="1080" fill="#F5F5F5"/>
<rect width="1920" height="1080" fill="white"/>
<rect x="807" y="20" width="135" height="50" fill="white"/>
<rect x="807" y="20" width="135" height="50" stroke="black"/>
<rect x="808" y="20.9999" width="133" height="48" fill="white" stroke="#250B34" stroke-width="2"/>
<path d="M850.472 37.6885H852.377V51.5785H850.472V37.6885ZM844.967 43.0135H847.937V44.5885H844.967V43.0135ZM847.547 37.9885H849.407V50.9635H847.547V37.9885ZM844.517 39.3235H846.437C846.437 43.2835 845.252 46.4335 841.352 48.6985L840.227 47.3035C843.392 45.3985 844.517 43.0885 844.517 39.7285V39.3235ZM841.007 39.3235H845.147V40.9135H841.007V39.3235ZM863.746 37.7035H865.756V45.5485H863.746V37.7035ZM856.516 46.1785H865.756V51.4285H856.516V46.1785ZM863.791 47.7385H858.466V49.8535H863.791V47.7385ZM858.196 38.3335C860.356 38.3335 861.961 39.7135 861.961 41.6635C861.961 43.5985 860.356 44.9935 858.196 44.9935C856.036 44.9935 854.416 43.5985 854.416 41.6635C854.416 39.7135 856.036 38.3335 858.196 38.3335ZM858.196 39.9835C857.146 39.9835 856.366 40.5985 856.366 41.6635C856.366 42.7135 857.146 43.3285 858.196 43.3285C859.246 43.3285 860.011 42.7135 860.011 41.6635C860.011 40.5985 859.246 39.9835 858.196 39.9835ZM871.725 38.6485C873.84 38.6485 875.37 40.5685 875.37 43.5985C875.37 46.6585 873.84 48.5785 871.725 48.5785C869.61 48.5785 868.08 46.6585 868.08 43.5985C868.08 40.5685 869.61 38.6485 871.725 38.6485ZM871.725 40.4635C870.69 40.4635 870 41.5585 870 43.5985C870 45.6685 870.69 46.7785 871.725 46.7785C872.76 46.7785 873.465 45.6685 873.465 43.5985C873.465 41.5585 872.76 40.4635 871.725 40.4635ZM876.885 37.6885H878.895V51.5785H876.885V37.6885ZM878.445 42.9235H880.905V44.5735H878.445V42.9235ZM891.329 37.6735H893.339V51.6085H891.329V37.6735ZM885.854 38.6485C887.954 38.6485 889.499 40.5685 889.499 43.5985C889.499 46.6585 887.954 48.5785 885.854 48.5785C883.754 48.5785 882.209 46.6585 882.209 43.5985C882.209 40.5685 883.754 38.6485 885.854 38.6485ZM885.854 40.4635C884.819 40.4635 884.114 41.5585 884.114 43.5985C884.114 45.6685 884.819 46.7785 885.854 46.7785C886.889 46.7785 887.579 45.6685 887.579 43.5985C887.579 41.5585 886.889 40.4635 885.854 40.4635ZM897.027 38.2135H905.817V39.8035H897.027V38.2135ZM904.752 38.2135H906.732V39.5335C906.732 40.8985 906.732 42.2785 906.342 44.1085L904.377 43.9585C904.752 42.1885 904.752 40.8835 904.752 39.5335V38.2135ZM905.367 40.7935V42.2485L896.892 42.6085L896.652 40.9735L905.367 40.7935ZM895.632 44.7985H908.142V46.3735H895.632V44.7985ZM900.267 43.1035H902.262V45.8035H900.267V43.1035ZM897.087 49.7785H906.957V51.3685H897.087V49.7785ZM897.087 47.2435H899.082V50.4985H897.087V47.2435Z" fill="black"/>
<rect x="808" y="97.9999" width="133" height="48" fill="white" stroke="#250B34" stroke-width="2"/>
<path d="M861.63 121.544H862.77C865.365 121.544 866.985 121.499 868.83 121.199L868.98 122.789C867.09 123.089 865.41 123.134 862.77 123.134H861.63V121.544ZM861.615 115.604H867.885V120.059H863.61V122.579H861.63V118.559H865.92V117.194H861.615V115.604ZM870.735 114.704H872.73V124.919H870.735V114.704ZM863.49 126.749H873.075V128.339H863.49V126.749ZM863.49 124.109H865.485V127.259H863.49V124.109ZM868.56 118.019H871.125V119.699H868.56V118.019ZM884.564 114.674H886.559V128.609H884.564V114.674ZM882.119 120.014H885.014V121.619H882.119V120.014ZM878.114 118.289H879.674V119.009C879.674 121.934 878.414 124.889 875.894 126.014L874.829 124.484C877.079 123.449 878.114 121.094 878.114 119.009V118.289ZM878.549 118.289H880.094V119.009C880.094 121.004 881.159 123.254 883.409 124.259L882.359 125.774C879.809 124.694 878.549 121.844 878.549 119.009V118.289ZM875.294 116.954H882.869V118.529H875.294V116.954ZM878.114 115.004H880.109V117.764H878.114V115.004Z" fill="black"/>
<rect x="807" y="261" width="133" height="48" fill="white" stroke="#250B34" stroke-width="2"/>
<path d="M846.697 279.114H852.187V288.114H846.697V279.114ZM850.327 280.674H848.557V286.554H850.327V280.674ZM856.342 277.689H858.247V291.579H856.342V277.689ZM851.182 282.729H854.302V284.334H851.182V282.729ZM853.507 277.899H855.382V290.949H853.507V277.899ZM869.645 277.704H871.655V287.679H869.645V277.704ZM862.4 289.749H872V291.339H862.4V289.749ZM862.4 286.674H864.395V290.394H862.4V286.674ZM864.095 278.574C866.225 278.574 867.86 280.044 867.86 282.099C867.86 284.139 866.225 285.624 864.095 285.624C861.965 285.624 860.315 284.139 860.315 282.099C860.315 280.044 861.965 278.574 864.095 278.574ZM864.095 280.299C863.06 280.299 862.265 280.959 862.265 282.099C862.265 283.224 863.06 283.884 864.095 283.884C865.115 283.884 865.91 283.224 865.91 282.099C865.91 280.959 865.115 280.299 864.095 280.299ZM874.294 279.114H879.784V288.114H874.294V279.114ZM877.924 280.674H876.154V286.554H877.924V280.674ZM883.939 277.689H885.844V291.579H883.939V277.689ZM878.779 282.729H881.899V284.334H878.779V282.729ZM881.104 277.899H882.979V290.949H881.104V277.899ZM889.218 282.054H898.878V283.644H889.218V282.054ZM889.218 278.319H891.213V282.774H889.218V278.319ZM887.718 285.174H900.273V286.779H887.718V285.174ZM890.568 285.744H892.563V291.579H890.568V285.744ZM895.413 285.744H897.408V291.579H895.413V285.744Z" fill="black"/>
<rect x="925" y="321" width="134" height="48" fill="white" stroke="#250B34" stroke-width="2"/>
<path d="M970.07 344.394H972.065V346.329H970.07V344.394ZM966.41 337.899H968.375V338.814H973.79V337.899H975.77V342.549H966.41V337.899ZM968.375 340.269V341.079H973.79V340.269H968.375ZM964.805 343.269H977.36V344.844H964.805V343.269ZM966.245 345.714H975.845V349.239H968.225V350.499H966.26V347.874H973.88V347.169H966.245V345.714ZM966.26 350.004H976.205V351.489H966.26V350.004ZM988.234 337.674H990.229V351.609H988.234V337.674ZM986.059 342.684H988.639V344.289H986.059V342.684ZM979.084 346.749H980.224C982.474 346.749 984.259 346.704 986.269 346.359L986.449 347.979C984.394 348.324 982.534 348.399 980.224 348.399H979.084V346.749ZM979.054 338.859H985.309V344.079H981.064V347.244H979.084V342.504H983.344V340.449H979.054V338.859ZM997.683 345.504H999.678V348.669H997.683V345.504ZM998.688 338.394C1001.66 338.394 1003.88 339.909 1003.88 342.219C1003.88 344.559 1001.66 346.059 998.688 346.059C995.718 346.059 993.498 344.559 993.498 342.219C993.498 339.909 995.718 338.394 998.688 338.394ZM998.688 339.969C996.783 339.969 995.463 340.809 995.463 342.219C995.463 343.659 996.783 344.484 998.688 344.484C1000.59 344.484 1001.91 343.659 1001.91 342.219C1001.91 340.809 1000.59 339.969 998.688 339.969ZM992.418 348.354H1004.99V349.974H992.418V348.354ZM1015.77 337.689H1017.78V351.579H1015.77V337.689ZM1011.68 339.129H1013.66C1013.66 343.374 1012.22 346.854 1007.28 349.239L1006.25 347.649C1010.24 345.729 1011.68 343.209 1011.68 339.489V339.129ZM1006.98 339.129H1012.62V340.704H1006.98V339.129Z" fill="black"/>
<rect x="808" y="179" width="133" height="49" fill="white" stroke="#250B34" stroke-width="2"/>
<path d="M848.346 187.858H850.326V201.793H848.346V187.858ZM845.196 192.748H848.916V194.353H845.196V192.748ZM839.181 188.953H841.161V192.313H843.891V188.953H845.856V198.523H839.181V188.953ZM841.161 193.858V196.918H843.891V193.858H841.161ZM859.91 191.458H863.15V193.063H859.91V191.458ZM862.1 187.888H864.095V198.013H862.1V187.888ZM854.93 199.933H864.41V201.523H854.93V199.933ZM854.93 197.158H856.925V200.878H854.93V197.158ZM855.68 189.703H857.3V190.573C857.3 193.183 856.07 195.598 853.4 196.483L852.395 194.893C854.69 194.143 855.68 192.328 855.68 190.573V189.703ZM856.1 189.703H857.705V190.573C857.705 192.193 858.65 193.918 860.84 194.653L859.865 196.213C857.285 195.358 856.1 193.048 856.1 190.573V189.703ZM852.935 188.818H860.405V190.393H852.935V188.818ZM871.924 193.138H874.129V194.743H871.924V193.138ZM868.699 191.728H870.199V192.088C870.199 194.983 869.359 197.878 867.139 199.153L866.014 197.653C867.994 196.498 868.699 194.218 868.699 192.088V191.728ZM869.089 191.728H870.589V192.088C870.589 194.188 871.309 196.303 873.274 197.353L872.194 198.823C869.944 197.653 869.089 194.938 869.089 192.088V191.728ZM866.539 190.198H872.734V191.803H866.539V190.198ZM868.699 188.338H870.589V191.503H868.699V188.338ZM876.304 187.873H878.194V201.763H876.304V187.873ZM873.499 188.098H875.359V201.133H873.499V188.098ZM881.493 189.088H890.238V190.678H881.493V189.088ZM880.083 198.493H892.638V200.128H880.083V198.493ZM889.398 189.088H891.363V190.693C891.363 192.718 891.363 194.638 890.718 197.668L888.753 197.488C889.398 194.683 889.398 192.658 889.398 190.693V189.088ZM889.818 192.898V194.368L881.328 194.788L881.088 193.183L889.818 192.898ZM898.043 188.698H904.778V194.578H898.043V188.698ZM902.828 190.258H899.993V193.018H902.828V190.258ZM906.878 187.873H908.888V195.748H906.878V187.873ZM903.173 197.533H904.883V197.713C904.883 199.693 902.963 201.403 899.408 201.733L898.763 200.233C901.808 199.978 903.173 198.733 903.173 197.713V197.533ZM903.503 197.533H905.228V197.713C905.228 198.688 906.608 199.963 909.623 200.233L908.978 201.733C905.408 201.403 903.503 199.633 903.503 197.713V197.533ZM899.303 196.498H909.083V197.983H899.303V196.498ZM903.188 195.373H905.228V197.188H903.188V195.373ZM872.381 205.873H874.391V212.893H872.381V205.873ZM865.121 213.508H874.391V217.273H867.101V218.668H865.151V215.833H872.411V215.023H865.121V213.508ZM865.151 218.128H874.736V219.673H865.151V218.128ZM866.096 206.188H867.746V207.238C867.746 209.803 866.456 212.128 863.741 212.953L862.781 211.378C865.106 210.673 866.096 208.933 866.096 207.238V206.188ZM866.501 206.188H868.136V207.238C868.136 208.888 869.111 210.508 871.376 211.153L870.416 212.698C867.746 211.918 866.501 209.743 866.501 207.238V206.188ZM886.585 205.873H888.475V214.573H886.585V205.873ZM884.89 209.293H887.11V210.913H884.89V209.293ZM883.705 206.143H885.565V214.123H883.705V206.143ZM876.58 207.298H883.315V208.828H876.58V207.298ZM879.97 209.278C881.71 209.278 882.97 210.268 882.97 211.708C882.97 213.148 881.71 214.123 879.97 214.123C878.23 214.123 876.97 213.148 876.97 211.708C876.97 210.268 878.23 209.278 879.97 209.278ZM879.97 210.703C879.235 210.703 878.74 211.063 878.74 211.708C878.74 212.353 879.235 212.713 879.97 212.713C880.69 212.713 881.185 212.353 881.185 211.708C881.185 211.063 880.69 210.703 879.97 210.703ZM878.965 206.008H880.93V208.348H878.965V206.008ZM883.78 214.723C886.75 214.723 888.55 215.623 888.55 217.243C888.55 218.848 886.75 219.763 883.78 219.763C880.795 219.763 878.995 218.848 878.995 217.243C878.995 215.623 880.795 214.723 883.78 214.723ZM883.78 216.208C881.92 216.208 880.99 216.523 880.99 217.243C880.99 217.948 881.92 218.278 883.78 218.278C885.625 218.278 886.555 217.948 886.555 217.243C886.555 216.523 885.625 216.208 883.78 216.208Z" fill="black"/>
<rect x="99" y="699" width="135" height="48" fill="white" stroke="#250B34" stroke-width="2"/>
<path d="M142.529 716.409H144.194V717.654C144.194 720.444 142.949 722.889 140.219 723.804L139.184 722.199C141.554 721.434 142.529 719.559 142.529 717.654V716.409ZM142.949 716.409H144.554V717.564C144.554 719.409 145.454 721.119 147.659 721.824L146.624 723.384C144.059 722.499 142.949 720.264 142.949 717.564V716.409ZM148.934 715.689H150.929V723.819H148.934V715.689ZM146.219 724.179C149.159 724.179 150.974 725.184 150.974 726.879C150.974 728.589 149.159 729.579 146.219 729.579C143.279 729.579 141.464 728.589 141.464 726.879C141.464 725.184 143.279 724.179 146.219 724.179ZM146.219 725.724C144.419 725.724 143.459 726.099 143.459 726.879C143.459 727.659 144.419 728.049 146.219 728.049C148.034 728.049 148.994 727.659 148.994 726.879C148.994 726.099 148.034 725.724 146.219 725.724ZM146.399 718.209H149.219V719.829H146.399V718.209ZM159.792 717.729H163.332V719.304H159.792V717.729ZM159.792 720.579H163.392V722.169H159.792V720.579ZM153.687 716.499H155.667V718.434H158.307V716.499H160.257V723.354H153.687V716.499ZM155.667 719.979V721.764H158.307V719.979H155.667ZM155.262 724.584H164.727V729.579H162.732V726.174H155.262V724.584ZM162.732 715.689H164.727V723.969H162.732V715.689ZM172.136 716.094H173.891V716.739C173.891 719.409 171.791 721.674 168.146 722.214L167.366 720.609C170.561 720.189 172.136 718.374 172.136 716.739V716.094ZM172.511 716.094H174.251V716.739C174.251 718.359 175.841 720.189 179.021 720.609L178.256 722.214C174.611 721.674 172.511 719.409 172.511 716.739V716.094ZM172.151 724.494H174.131V729.579H172.151V724.494ZM166.916 723.234H179.471V724.854H166.916V723.234ZM190.27 715.674H192.265V729.609H190.27V715.674ZM181.45 724.749H182.68C185.14 724.749 187.105 724.659 189.31 724.284L189.505 725.889C187.255 726.294 185.215 726.369 182.68 726.369H181.45V724.749ZM181.435 716.859H187.99V722.229H183.475V725.349H181.45V720.654H185.95V718.449H181.435V716.859Z" fill="black"/>
<rect x="282" y="699" width="135" height="48" fill="white" stroke="#250B34" stroke-width="2"/>
<path d="M313.74 716.094H315.495V716.739C315.495 719.409 313.395 721.674 309.75 722.214L308.97 720.609C312.165 720.189 313.74 718.374 313.74 716.739V716.094ZM314.115 716.094H315.855V716.739C315.855 718.359 317.445 720.189 320.625 720.609L319.86 722.214C316.215 721.674 314.115 719.409 314.115 716.739V716.094ZM313.755 724.494H315.735V729.579H313.755V724.494ZM308.52 723.234H321.075V724.854H308.52V723.234ZM325.529 716.409H327.194V717.654C327.194 720.444 325.949 722.889 323.219 723.804L322.184 722.199C324.554 721.434 325.529 719.559 325.529 717.654V716.409ZM325.949 716.409H327.554V717.564C327.554 719.409 328.454 721.119 330.659 721.824L329.624 723.384C327.059 722.499 325.949 720.264 325.949 717.564V716.409ZM331.934 715.689H333.929V723.819H331.934V715.689ZM329.219 724.179C332.159 724.179 333.974 725.184 333.974 726.879C333.974 728.589 332.159 729.579 329.219 729.579C326.279 729.579 324.464 728.589 324.464 726.879C324.464 725.184 326.279 724.179 329.219 724.179ZM329.219 725.724C327.419 725.724 326.459 726.099 326.459 726.879C326.459 727.659 327.419 728.049 329.219 728.049C331.034 728.049 331.994 727.659 331.994 726.879C331.994 726.099 331.034 725.724 329.219 725.724ZM329.399 718.209H332.219V719.829H329.399V718.209ZM339.192 717.234H340.827V718.104C340.827 720.759 339.582 723.144 336.897 724.029L335.907 722.454C338.217 721.689 339.192 719.874 339.192 718.104V717.234ZM339.597 717.234H341.217V718.104C341.217 719.724 342.147 721.314 344.382 721.989L343.437 723.549C340.797 722.754 339.597 720.579 339.597 718.104V717.234ZM336.432 716.619H343.932V718.209H336.432V716.619ZM345.042 715.689H347.037V723.924H345.042V715.689ZM346.482 718.884H348.882V720.519H346.482V718.884ZM342.507 724.179C345.387 724.179 347.202 725.184 347.202 726.879C347.202 728.574 345.387 729.579 342.507 729.579C339.612 729.579 337.797 728.574 337.797 726.879C337.797 725.184 339.612 724.179 342.507 724.179ZM342.507 725.739C340.737 725.739 339.777 726.099 339.777 726.879C339.777 727.659 340.737 728.049 342.507 728.049C344.277 728.049 345.222 727.659 345.222 726.879C345.222 726.099 344.277 725.739 342.507 725.739ZM359.426 715.674H361.436V729.609H359.426V715.674ZM350.591 716.784H352.571V720.159H355.436V716.784H357.416V726.369H350.591V716.784ZM352.571 721.704V724.764H355.436V721.704H352.571ZM370.795 718.644H374.02V720.249H370.795V718.644ZM366.88 716.544H368.485V718.044C368.485 720.879 367.3 723.294 364.675 724.254L363.625 722.694C365.92 721.929 366.88 720.009 366.88 718.044V716.544ZM367.315 716.544H368.905V718.059C368.905 719.844 369.82 721.629 372.01 722.379L370.945 723.909C368.455 723.009 367.315 720.684 367.315 718.059V716.544ZM373.33 715.704H375.325V725.949H373.33V715.704ZM366.13 727.749H375.625V729.339H366.13V727.749ZM366.13 724.914H368.14V728.634H366.13V724.914ZM377.964 722.019H378.924C380.934 722.019 382.224 721.989 383.754 721.734L383.934 723.324C382.344 723.594 380.994 723.639 378.924 723.639H377.964V722.019ZM377.964 716.619H383.439V718.209H379.884V722.904H377.964V716.619ZM379.314 719.334H383.289V720.834H379.314V719.334ZM387.444 715.689H389.334V724.164H387.444V715.689ZM385.779 719.094H387.984V720.684H385.779V719.094ZM384.474 715.944H386.334V724.074H384.474V715.944ZM379.794 724.764H389.334V729.579H387.354V726.354H379.794V724.764Z" fill="black"/>
<rect x="193" y="593" width="135" height="48" fill="white" stroke="#250B34" stroke-width="2"/>
<path d="M250.327 610.409H251.992V611.654C251.992 614.444 250.747 616.889 248.017 617.804L246.982 616.199C249.352 615.434 250.327 613.559 250.327 611.654V610.409ZM250.747 610.409H252.352V611.564C252.352 613.409 253.252 615.119 255.457 615.824L254.422 617.384C251.857 616.499 250.747 614.264 250.747 611.564V610.409ZM256.732 609.689H258.727V617.819H256.732V609.689ZM254.017 618.179C256.957 618.179 258.772 619.184 258.772 620.879C258.772 622.589 256.957 623.579 254.017 623.579C251.077 623.579 249.262 622.589 249.262 620.879C249.262 619.184 251.077 618.179 254.017 618.179ZM254.017 619.724C252.217 619.724 251.257 620.099 251.257 620.879C251.257 621.659 252.217 622.049 254.017 622.049C255.832 622.049 256.792 621.659 256.792 620.879C256.792 620.099 255.832 619.724 254.017 619.724ZM254.197 612.209H257.017V613.829H254.197V612.209ZM267.591 611.729H271.131V613.304H267.591V611.729ZM267.591 614.579H271.191V616.169H267.591V614.579ZM261.486 610.499H263.466V612.434H266.106V610.499H268.056V617.354H261.486V610.499ZM263.466 613.979V615.764H266.106V613.979H263.466ZM263.061 618.584H272.526V623.579H270.531V620.174H263.061V618.584ZM270.531 609.689H272.526V617.969H270.531V609.689Z" fill="black"/>
<rect x="891" y="593" width="133" height="48" fill="white" stroke="#250B34" stroke-width="2"/>
<path d="M944.301 603.644H947.526V605.249H944.301V603.644ZM940.386 601.544H941.991V603.044C941.991 605.879 940.806 608.294 938.181 609.254L937.131 607.694C939.426 606.929 940.386 605.009 940.386 603.044V601.544ZM940.821 601.544H942.411V603.059C942.411 604.844 943.326 606.629 945.516 607.379L944.451 608.909C941.961 608.009 940.821 605.684 940.821 603.059V601.544ZM946.836 600.704H948.831V610.949H946.836V600.704ZM939.636 612.749H949.131V614.339H939.636V612.749ZM939.636 609.914H941.646V613.634H939.636V609.914ZM956.27 600.764H957.95V601.019C957.95 603.344 955.865 605.174 952.28 605.564L951.62 604.064C954.755 603.749 956.27 602.369 956.27 601.019V600.764ZM956.615 600.764H958.31V601.019C958.31 602.369 959.825 603.749 962.945 604.064L962.285 605.564C958.7 605.174 956.615 603.344 956.615 601.019V600.764ZM956.27 607.349H958.265V609.284H956.27V607.349ZM951.005 606.134H963.56V607.694H951.005V606.134ZM952.445 608.594H962.045V612.194H954.425V613.394H952.46V610.814H960.08V610.079H952.445V608.594ZM952.46 612.989H962.405V614.489H952.46V612.989ZM968.179 601.889H969.814V602.744C969.814 605.234 968.524 607.484 965.854 608.294L964.849 606.734C967.174 606.059 968.179 604.379 968.179 602.744V601.889ZM968.584 601.889H970.219V602.744C970.219 604.289 971.224 605.864 973.474 606.509L972.499 608.054C969.874 607.289 968.584 605.144 968.584 602.744V601.889ZM965.389 601.439H972.949V603.014H965.389V601.439ZM974.344 600.689H976.354V608.219H974.344V600.689ZM967.114 608.819H969.079V610.079H974.374V608.819H976.354V614.429H967.114V608.819ZM969.079 611.624V612.839H974.374V611.624H969.079ZM924.975 626.87C924.975 625.549 925.151 624.333 925.502 623.222C925.858 622.11 926.399 621.08 927.127 620.132H929.295C929.018 620.484 928.761 620.913 928.523 621.421C928.285 621.925 928.077 622.479 927.9 623.083C927.722 623.687 927.583 624.312 927.484 624.958C927.385 625.601 927.335 626.238 927.335 626.87C927.335 627.712 927.42 628.562 927.591 629.422C927.765 630.278 927.999 631.073 928.294 631.808C928.592 632.543 928.926 633.145 929.295 633.614H927.127C926.399 632.666 925.858 631.636 925.502 630.524C925.151 629.413 924.975 628.195 924.975 626.87ZM933.127 623.339H935.122V625.889H933.127V623.339ZM938.017 623.339H939.997V625.889H938.017V623.339ZM930.307 625.274H942.862V626.849H930.307V625.274ZM936.562 627.554C939.562 627.554 941.377 628.454 941.377 630.059C941.377 631.679 939.562 632.579 936.562 632.579C933.547 632.579 931.732 631.679 931.732 630.059C931.732 628.454 933.547 627.554 936.562 627.554ZM936.562 629.054C934.702 629.054 933.757 629.369 933.757 630.059C933.757 630.764 934.702 631.079 936.562 631.079C938.422 631.079 939.367 630.764 939.367 630.059C939.367 629.369 938.422 629.054 936.562 629.054ZM936.592 618.884C939.652 618.884 941.617 619.904 941.617 621.569C941.617 623.219 939.652 624.209 936.592 624.209C933.517 624.209 931.567 623.219 931.567 621.569C931.567 619.904 933.517 618.884 936.592 618.884ZM936.592 620.414C934.687 620.414 933.622 620.789 933.622 621.569C933.622 622.334 934.687 622.709 936.592 622.709C938.497 622.709 939.562 622.334 939.562 621.569C939.562 620.789 938.497 620.414 936.592 620.414ZM950.795 620.714H954.17V622.289H950.795V620.714ZM950.795 623.549H954.17V625.154H950.795V623.549ZM944.69 619.529H946.67V621.374H949.31V619.529H951.26V626.204H944.69V619.529ZM946.67 622.919V624.644H949.31V622.919H946.67ZM953.735 618.689H955.73V626.984H953.735V618.689ZM951.02 627.224C953.96 627.224 955.775 628.229 955.775 629.909C955.775 631.604 953.96 632.579 951.02 632.579C948.08 632.579 946.265 631.604 946.265 629.909C946.265 628.229 948.08 627.224 951.02 627.224ZM951.02 628.754C949.22 628.754 948.26 629.114 948.26 629.909C948.26 630.689 949.22 631.064 951.02 631.064C952.835 631.064 953.795 630.689 953.795 629.909C953.795 629.114 952.835 628.754 951.02 628.754ZM957.919 629.354H970.489V630.974H957.919V629.354ZM963.184 626.279H965.179V629.729H963.184V626.279ZM959.224 619.709H969.109V626.534H959.224V619.709ZM967.159 621.299H961.189V624.959H967.159V621.299ZM975.078 619.889H976.713V620.744C976.713 623.234 975.423 625.484 972.753 626.294L971.748 624.734C974.073 624.059 975.078 622.379 975.078 620.744V619.889ZM975.483 619.889H977.118V620.744C977.118 622.289 978.123 623.864 980.373 624.509L979.398 626.054C976.773 625.289 975.483 623.144 975.483 620.744V619.889ZM972.288 619.439H979.848V621.014H972.288V619.439ZM981.243 618.689H983.253V626.219H981.243V618.689ZM974.013 626.819H975.978V628.079H981.273V626.819H983.253V632.429H974.013V626.819ZM975.978 629.624V630.839H981.273V629.624H975.978ZM989.632 626.87C989.632 628.195 989.454 629.413 989.099 630.524C988.748 631.636 988.208 632.666 987.48 633.614H985.312C985.589 633.262 985.847 632.833 986.084 632.325C986.322 631.817 986.53 631.263 986.708 630.663C986.885 630.059 987.024 629.434 987.123 628.788C987.223 628.142 987.272 627.502 987.272 626.87C987.272 626.029 987.185 625.18 987.011 624.324C986.841 623.465 986.606 622.669 986.308 621.938C986.013 621.203 985.681 620.601 985.312 620.132H987.48C988.208 621.08 988.748 622.11 989.099 623.222C989.454 624.333 989.632 625.549 989.632 626.87Z" fill="black"/>
<rect x="369" y="593" width="133" height="48" fill="white" stroke="#250B34" stroke-width="2"/>
<path d="M425.241 609.689H427.131V623.579H425.241V609.689ZM423.381 615.029H425.691V616.634H423.381V615.029ZM422.136 609.929H423.981V622.919H422.136V609.929ZM415.596 618.809H416.571C418.281 618.809 419.706 618.749 421.356 618.449L421.506 620.069C419.826 620.399 418.356 620.444 416.571 620.444H415.596V618.809ZM415.596 611.294H420.726V612.899H417.576V619.589H415.596V611.294ZM432.095 611.234H433.73V612.104C433.73 614.759 432.485 617.144 429.8 618.029L428.81 616.454C431.12 615.689 432.095 613.874 432.095 612.104V611.234ZM432.5 611.234H434.12V612.104C434.12 613.724 435.05 615.314 437.285 615.989L436.34 617.549C433.7 616.754 432.5 614.579 432.5 612.104V611.234ZM429.335 610.619H436.835V612.209H429.335V610.619ZM437.945 609.689H439.94V617.924H437.945V609.689ZM439.385 612.884H441.785V614.519H439.385V612.884ZM435.41 618.179C438.29 618.179 440.105 619.184 440.105 620.879C440.105 622.574 438.29 623.579 435.41 623.579C432.515 623.579 430.7 622.574 430.7 620.879C430.7 619.184 432.515 618.179 435.41 618.179ZM435.41 619.739C433.64 619.739 432.68 620.099 432.68 620.879C432.68 621.659 433.64 622.049 435.41 622.049C437.18 622.049 438.125 621.659 438.125 620.879C438.125 620.099 437.18 619.739 435.41 619.739ZM451.729 609.689H453.739V619.634H451.729V609.689ZM453.169 613.559H455.584V615.194H453.169V613.559ZM447.859 610.724H449.989C449.989 614.504 447.679 617.099 443.539 618.299L442.699 616.709C446.104 615.779 447.859 613.919 447.859 611.714V610.724ZM443.299 610.724H448.939V612.329H443.299V610.724ZM444.754 621.749H454.204V623.339H444.754V621.749ZM444.754 618.629H446.764V622.454H444.754V618.629Z" fill="black"/>
<rect x="543" y="593" width="133" height="48" fill="white" stroke="#250B34" stroke-width="2"/>
<path d="M575.407 617.684H587.992V619.259H575.407V617.684ZM580.657 618.479H582.637V623.579H580.657V618.479ZM576.847 610.214H578.827V611.789H584.527V610.214H586.507V616.364H576.847V610.214ZM578.827 613.349V614.774H584.527V613.349H578.827ZM599.241 609.689H601.131V623.579H599.241V609.689ZM597.381 615.029H599.691V616.634H597.381V615.029ZM596.136 609.929H597.981V622.919H596.136V609.929ZM589.596 618.809H590.571C592.281 618.809 593.706 618.749 595.356 618.449L595.506 620.069C593.826 620.399 592.356 620.444 590.571 620.444H589.596V618.809ZM589.596 611.294H594.726V612.899H591.576V619.589H589.596V611.294ZM603.005 617.504H615.56V619.049H603.005V617.504ZM608.45 618.644H610.46V620.744H608.45V618.644ZM604.46 621.794H614.195V623.339H604.46V621.794ZM604.46 619.904H606.44V622.769H604.46V619.904ZM603.605 610.814H614.915V612.314H603.605V610.814ZM609.29 612.704C612.245 612.704 613.94 613.439 613.94 614.819C613.94 616.199 612.245 616.949 609.29 616.949C606.335 616.949 604.64 616.199 604.64 614.819C604.64 613.439 606.335 612.704 609.29 612.704ZM609.29 614.099C607.475 614.099 606.68 614.309 606.68 614.819C606.68 615.329 607.475 615.539 609.29 615.539C611.09 615.539 611.9 615.329 611.9 614.819C611.9 614.309 611.09 614.099 609.29 614.099ZM608.285 609.629H610.28V611.774H608.285V609.629ZM617.329 616.664H618.394C620.749 616.664 622.204 616.604 623.899 616.304L624.109 617.894C622.369 618.209 620.824 618.269 618.394 618.269H617.329V616.664ZM617.314 610.634H623.419V615.119H619.309V617.624H617.329V613.619H621.439V612.224H617.314V610.634ZM626.434 609.704H628.429V619.964H626.434V609.704ZM624.214 611.789H626.809V613.364H624.214V611.789ZM619.159 621.719H628.774V623.324H619.159V621.719ZM619.159 619.169H621.139V622.319H619.159V619.169ZM624.214 614.924H626.809V616.514H624.214V614.924ZM630.617 620.324H643.187V621.959H630.617V620.324ZM635.837 617.234H637.817V620.759H635.837V617.234ZM635.762 610.454H637.502V611.459C637.502 614.414 635.357 617.024 631.727 617.684L630.902 616.019C634.067 615.509 635.762 613.379 635.762 611.459V610.454ZM636.152 610.454H637.892V611.459C637.892 613.424 639.587 615.509 642.767 616.019L641.942 617.684C638.297 617.009 636.152 614.459 636.152 611.459V610.454Z" fill="black"/>
<rect x="717" y="593" width="133" height="48" fill="white" stroke="#250B34" stroke-width="2"/>
<path d="M773.241 609.689H775.146V623.579H773.241V609.689ZM771.441 614.984H773.736V616.589H771.441V614.984ZM767.511 611.294H769.401C769.401 615.284 768.426 618.509 764.286 620.924L763.176 619.514C766.596 617.534 767.511 615.104 767.511 611.654V611.294ZM764.001 611.294H768.141V612.899H764.001V611.294ZM770.181 609.989H772.041V622.979H770.181V609.989ZM767.541 614.429V615.899L763.506 616.334L763.281 614.654L767.541 614.429ZM786.545 609.689H788.555V618.224H786.545V609.689ZM779.075 618.824H788.555V623.579H786.545V620.429H779.075V618.824ZM777.725 616.049H778.94C781.64 616.049 783.395 615.989 785.405 615.674L785.63 617.249C783.56 617.609 781.715 617.654 778.94 617.654H777.725V616.049ZM777.71 610.454H784.1V614.729H779.69V616.799H777.725V613.244H782.135V612.044H777.71V610.454ZM800.479 609.674H802.459V623.609H800.479V609.674ZM798.094 614.564H800.704V616.184H798.094V614.564ZM791.434 618.854H792.544C794.839 618.854 796.549 618.824 798.514 618.509L798.694 620.099C796.684 620.414 794.884 620.474 792.544 620.474H791.434V618.854ZM791.434 610.844H797.869V612.464H793.414V619.364H791.434V610.844ZM792.964 614.714H797.389V616.274H792.964V614.714Z" fill="black"/>
<rect x="716" y="694" width="133" height="48" fill="white" stroke="#250B34" stroke-width="2"/>
<path d="M772.195 712.234H773.83V713.104C773.83 715.759 772.585 718.144 769.9 719.029L768.91 717.454C771.22 716.689 772.195 714.874 772.195 713.104V712.234ZM772.6 712.234H774.22V713.104C774.22 714.724 775.15 716.314 777.385 716.989L776.44 718.549C773.8 717.754 772.6 715.579 772.6 713.104V712.234ZM769.435 711.619H776.935V713.209H769.435V711.619ZM778.045 710.689H780.04V718.924H778.045V710.689ZM779.485 713.884H781.885V715.519H779.485V713.884ZM775.51 719.179C778.39 719.179 780.205 720.184 780.205 721.879C780.205 723.574 778.39 724.579 775.51 724.579C772.615 724.579 770.8 723.574 770.8 721.879C770.8 720.184 772.615 719.179 775.51 719.179ZM775.51 720.739C773.74 720.739 772.78 721.099 772.78 721.879C772.78 722.659 773.74 723.049 775.51 723.049C777.28 723.049 778.225 722.659 778.225 721.879C778.225 721.099 777.28 720.739 775.51 720.739ZM792.429 710.674H794.439V724.609H792.429V710.674ZM783.594 711.784H785.574V715.159H788.439V711.784H790.419V721.369H783.594V711.784ZM785.574 716.704V719.764H788.439V716.704H785.574Z" fill="black"/>
<rect x="1147" y="773" width="133" height="48" fill="white" stroke="#250B34" stroke-width="2"/>
<path d="M1186.49 790.963H1194.15V792.553H1186.49V790.963ZM1186.34 800.413L1186.13 798.778C1188.54 798.778 1191.81 798.748 1194.56 798.403L1194.66 799.858C1191.86 800.353 1188.71 800.413 1186.34 800.413ZM1187.67 792.208H1189.61V799.213H1187.67V792.208ZM1191.03 792.208H1192.97V799.213H1191.03V792.208ZM1195.19 789.688H1197.2V803.578H1195.19V789.688ZM1196.75 794.953H1199.21V796.588H1196.75V794.953ZM1200.86 798.823H1202.06C1204.49 798.823 1206.35 798.778 1208.49 798.463L1208.67 800.038C1206.5 800.383 1204.53 800.443 1202.06 800.443H1200.86V798.823ZM1200.86 790.843H1207.89V792.463H1202.84V799.348H1200.86V790.843ZM1202.39 794.698H1207.31V796.258H1202.39V794.698ZM1209.68 789.688H1211.69V803.578H1209.68V789.688ZM1221 792.643H1224.22V794.248H1221V792.643ZM1217.08 790.543H1218.69V792.043C1218.69 794.878 1217.5 797.293 1214.88 798.253L1213.83 796.693C1216.12 795.928 1217.08 794.008 1217.08 792.043V790.543ZM1217.52 790.543H1219.11V792.058C1219.11 793.843 1220.02 795.628 1222.21 796.378L1221.15 797.908C1218.66 797.008 1217.52 794.683 1217.52 792.058V790.543ZM1223.53 789.703H1225.53V799.948H1223.53V789.703ZM1216.33 801.748H1225.83V803.338H1216.33V801.748ZM1216.33 798.913H1218.34V802.633H1216.33V798.913ZM1228.17 796.018H1229.13C1231.14 796.018 1232.43 795.988 1233.96 795.733L1234.14 797.323C1232.55 797.593 1231.2 797.638 1229.13 797.638H1228.17V796.018ZM1228.17 790.618H1233.64V792.208H1230.09V796.903H1228.17V790.618ZM1229.52 793.333H1233.49V794.833H1229.52V793.333ZM1237.65 789.688H1239.54V798.163H1237.65V789.688ZM1235.98 793.093H1238.19V794.683H1235.98V793.093ZM1234.68 789.943H1236.54V798.073H1234.68V789.943ZM1230 798.763H1239.54V803.578H1237.56V800.353H1230V798.763Z" fill="black"/>
<rect x="1147" y="853" width="133" height="48" fill="white" stroke="#250B34" stroke-width="2"/>
<path d="M1193.43 873.273H1196.67V874.878H1193.43V873.273ZM1195.62 869.703H1197.62V879.828H1195.62V869.703ZM1188.45 881.748H1197.93V883.338H1188.45V881.748ZM1188.45 878.973H1190.45V882.693H1188.45V878.973ZM1189.2 871.518H1190.82V872.388C1190.82 874.998 1189.59 877.413 1186.92 878.298L1185.92 876.708C1188.21 875.958 1189.2 874.143 1189.2 872.388V871.518ZM1189.62 871.518H1191.23V872.388C1191.23 874.008 1192.17 875.733 1194.36 876.468L1193.39 878.028C1190.81 877.173 1189.62 874.863 1189.62 872.388V871.518ZM1186.46 870.633H1193.93V872.208H1186.46V870.633ZM1199.79 877.923H1212.36V879.543H1199.79V877.923ZM1205.07 878.493H1207.05V883.593H1205.07V878.493ZM1201.35 875.343H1211.06V876.918H1201.35V875.343ZM1201.35 870.243H1210.91V871.803H1203.32V875.718H1201.35V870.243ZM1202.76 872.808H1210.61V874.323H1202.76V872.808ZM1216.16 877.513V882.243H1213.89V871.334H1216.1V875.505H1216.2C1216.38 875.022 1216.68 874.644 1217.09 874.371C1217.5 874.094 1218.02 873.955 1218.64 873.955C1219.21 873.955 1219.7 874.079 1220.13 874.328C1220.55 874.573 1220.88 874.926 1221.12 875.388C1221.36 875.846 1221.47 876.395 1221.47 877.034V882.243H1219.2V877.439C1219.2 876.935 1219.08 876.542 1218.82 876.262C1218.56 875.981 1218.2 875.841 1217.74 875.841C1217.43 875.841 1217.16 875.906 1216.92 876.038C1216.69 876.169 1216.5 876.361 1216.37 876.613C1216.24 876.862 1216.17 877.162 1216.16 877.513ZM1228.5 878.76V874.062H1230.77V882.243H1228.59V880.757H1228.51C1228.32 881.237 1228.02 881.622 1227.59 881.913C1227.16 882.204 1226.64 882.35 1226.03 882.35C1225.48 882.35 1225 882.226 1224.58 881.977C1224.17 881.729 1223.84 881.375 1223.61 880.917C1223.38 880.459 1223.26 879.91 1223.26 879.271V874.062H1225.52V878.866C1225.53 879.349 1225.66 879.731 1225.91 880.012C1226.17 880.292 1226.51 880.432 1226.94 880.432C1227.21 880.432 1227.47 880.37 1227.71 880.246C1227.95 880.118 1228.14 879.93 1228.28 879.681C1228.43 879.433 1228.51 879.126 1228.5 878.76ZM1235.6 882.377C1234.98 882.377 1234.42 882.217 1233.91 881.897C1233.41 881.574 1233.01 881.1 1232.72 880.475C1232.43 879.846 1232.28 879.076 1232.28 878.163C1232.28 877.226 1232.43 876.446 1232.74 875.825C1233.04 875.2 1233.44 874.733 1233.94 874.424C1234.44 874.111 1235 873.955 1235.6 873.955C1236.05 873.955 1236.44 874.033 1236.74 874.19C1237.05 874.342 1237.3 874.534 1237.49 874.765C1237.68 874.992 1237.82 875.216 1237.92 875.436H1237.99V871.334H1240.26V882.243H1238.02V880.933H1237.92C1237.82 881.16 1237.67 881.386 1237.47 881.61C1237.28 881.83 1237.03 882.013 1236.72 882.158C1236.41 882.304 1236.04 882.377 1235.6 882.377ZM1236.32 880.571C1236.69 880.571 1236.99 880.471 1237.25 880.273C1237.5 880.07 1237.7 879.788 1237.83 879.426C1237.97 879.063 1238.04 878.639 1238.04 878.153C1238.04 877.666 1237.97 877.243 1237.84 876.885C1237.7 876.526 1237.51 876.249 1237.25 876.054C1237 875.859 1236.69 875.761 1236.32 875.761C1235.95 875.761 1235.63 875.862 1235.38 876.065C1235.12 876.267 1234.93 876.547 1234.8 876.906C1234.67 877.265 1234.6 877.68 1234.6 878.153C1234.6 878.628 1234.67 879.049 1234.8 879.415C1234.93 879.777 1235.13 880.061 1235.38 880.267C1235.63 880.47 1235.95 880.571 1236.32 880.571Z" fill="black"/>
<rect x="1229" y="942" width="134" height="48" fill="white" stroke="#250B34" stroke-width="2"/>
<path d="M1287.87 958.913H1289.58V959.333C1289.58 961.808 1287.52 963.833 1283.95 964.328L1283.22 962.768C1286.34 962.393 1287.87 960.788 1287.87 959.333V958.913ZM1288.2 958.913H1289.91V959.333C1289.91 960.788 1291.44 962.393 1294.54 962.768L1293.82 964.328C1290.25 963.833 1288.2 961.793 1288.2 959.333V958.913ZM1282.6 965.063H1295.16V966.638H1282.6V965.063ZM1288.86 967.553C1291.86 967.553 1293.67 968.468 1293.67 970.073C1293.67 971.693 1291.86 972.593 1288.86 972.593C1285.84 972.593 1284.03 971.693 1284.03 970.073C1284.03 968.468 1285.84 967.553 1288.86 967.553ZM1288.86 969.053C1287 969.053 1286.05 969.383 1286.05 970.073C1286.05 970.778 1287 971.093 1288.86 971.093C1290.72 971.093 1291.66 970.778 1291.66 970.073C1291.66 969.383 1290.72 969.053 1288.86 969.053ZM1305.97 958.673H1307.97V972.608H1305.97V958.673ZM1297.15 967.748H1298.38C1300.84 967.748 1302.81 967.658 1305.01 967.283L1305.21 968.888C1302.96 969.293 1300.92 969.368 1298.38 969.368H1297.15V967.748ZM1297.14 959.858H1303.69V965.228H1299.18V968.348H1297.15V963.653H1301.65V961.448H1297.14V959.858Z" fill="black"/>
<rect x="1303" y="1022" width="133" height="48" fill="white" stroke="#250B34" stroke-width="2"/>
<path d="M1337.39 1038.67H1339.4V1052.61H1337.39V1038.67ZM1338.95 1043.82H1341.41V1045.45H1338.95V1043.82ZM1329.05 1047.61H1330.22C1332.56 1047.61 1334.4 1047.54 1336.44 1047.18L1336.64 1048.83C1334.54 1049.2 1332.63 1049.26 1330.22 1049.26H1329.05V1047.61ZM1329.05 1039.96H1335.53V1041.57H1331.03V1048.41H1329.05V1039.96ZM1348.59 1038.94C1351.65 1038.94 1353.62 1039.98 1353.62 1041.66C1353.62 1043.34 1351.65 1044.36 1348.59 1044.36C1345.53 1044.36 1343.57 1043.34 1343.57 1041.66C1343.57 1039.98 1345.53 1038.94 1348.59 1038.94ZM1348.59 1040.49C1346.69 1040.49 1345.62 1040.86 1345.62 1041.66C1345.62 1042.44 1346.69 1042.83 1348.59 1042.83C1350.48 1042.83 1351.56 1042.44 1351.56 1041.66C1351.56 1040.86 1350.48 1040.49 1348.59 1040.49ZM1343.76 1047.69H1353.36V1052.43H1343.76V1047.69ZM1351.41 1049.26H1345.73V1050.85H1351.41V1049.26ZM1342.31 1045.15H1354.86V1046.73H1342.31V1045.15ZM1361.27 1039.48H1363.01V1040.49C1363.01 1043.5 1360.86 1046.17 1357.26 1046.88L1356.41 1045.23C1359.54 1044.69 1361.27 1042.48 1361.27 1040.49V1039.48ZM1361.67 1039.48H1363.4V1040.49C1363.4 1042.53 1365.11 1044.69 1368.26 1045.23L1367.4 1046.88C1363.8 1046.17 1361.67 1043.55 1361.67 1040.49V1039.48ZM1356.12 1049.26H1368.69V1050.88H1356.12V1049.26ZM1375.56 1043.74H1378.02V1045.35H1375.56V1043.74ZM1370.31 1047.93H1371.25C1373.2 1047.93 1374.46 1047.9 1375.98 1047.64L1376.14 1049.23C1374.58 1049.5 1373.25 1049.53 1371.25 1049.53H1370.31V1047.93ZM1370.31 1040.22H1375.47V1041.79H1372.2V1048.51H1370.31V1040.22ZM1371.66 1043.95H1374.94V1045.48H1371.66V1043.95ZM1379.94 1038.69H1381.84V1052.58H1379.94V1038.69ZM1377.07 1038.93H1378.93V1051.96H1377.07V1038.93ZM1393.23 1038.67H1395.24V1052.61H1393.23V1038.67ZM1387.75 1039.65C1389.85 1039.65 1391.4 1041.57 1391.4 1044.6C1391.4 1047.66 1389.85 1049.58 1387.75 1049.58C1385.65 1049.58 1384.11 1047.66 1384.11 1044.6C1384.11 1041.57 1385.65 1039.65 1387.75 1039.65ZM1387.75 1041.46C1386.72 1041.46 1386.01 1042.56 1386.01 1044.6C1386.01 1046.67 1386.72 1047.78 1387.75 1047.78C1388.79 1047.78 1389.48 1046.67 1389.48 1044.6C1389.48 1042.56 1388.79 1041.46 1387.75 1041.46ZM1400.85 1040.88H1402.44V1042.44C1402.44 1045.65 1401.13 1048.78 1398.52 1049.97L1397.4 1048.39C1399.72 1047.36 1400.85 1044.79 1400.85 1042.44V1040.88ZM1401.3 1040.88H1402.87V1042.44C1402.87 1044.69 1403.98 1047.09 1406.31 1048.05L1405.23 1049.62C1402.59 1048.48 1401.3 1045.53 1401.3 1042.44V1040.88ZM1397.95 1040.02H1405.74V1041.66H1397.95V1040.02ZM1407.03 1038.69H1409.04V1052.58H1407.03V1038.69Z" fill="black"/>
<rect x="1147" y="1022" width="133" height="48" fill="white" stroke="#250B34" stroke-width="2"/>
<path d="M1200.11 1036.54H1212.66V1038.15H1200.11V1036.54ZM1205.37 1034.77H1207.37V1036.89H1205.37V1034.77ZM1201.5 1039.09H1211.15V1043.58H1209.15V1040.67H1201.5V1039.09ZM1201.71 1030.03H1203.68V1031.26H1209.09V1030.03H1211.07V1035.4H1201.71V1030.03ZM1203.68 1032.75V1033.84H1209.09V1032.75H1203.68ZM1217.28 1037.17H1219.29V1042.84H1217.28V1037.17ZM1223.73 1029.69H1225.72V1043.58H1223.73V1029.69ZM1214.07 1037.67L1213.83 1036.05C1216.59 1036.05 1219.95 1036 1222.95 1035.67L1223.1 1037.14C1220.02 1037.59 1216.78 1037.65 1214.07 1037.67ZM1214.95 1030.63H1220.4V1032.24H1214.95V1030.63ZM1219.68 1030.63H1221.66V1031.43C1221.66 1032.51 1221.66 1034.11 1221.22 1036.36L1219.24 1036.21C1219.68 1034.01 1219.68 1032.48 1219.68 1031.43V1030.63ZM1180.98 1055.87C1180.98 1054.55 1181.15 1053.33 1181.5 1052.22C1181.86 1051.11 1182.4 1050.08 1183.13 1049.13H1185.3C1185.02 1049.48 1184.76 1049.91 1184.52 1050.42C1184.28 1050.93 1184.08 1051.48 1183.9 1052.08C1183.72 1052.69 1183.58 1053.31 1183.48 1053.96C1183.38 1054.6 1183.33 1055.24 1183.33 1055.87C1183.33 1056.71 1183.42 1057.56 1183.59 1058.42C1183.76 1059.28 1184 1060.07 1184.29 1060.81C1184.59 1061.54 1184.93 1062.15 1185.3 1062.61H1183.13C1182.4 1061.67 1181.86 1060.64 1181.5 1059.52C1181.15 1058.41 1180.98 1057.19 1180.98 1055.87ZM1186.32 1058.35H1198.89V1059.97H1186.32V1058.35ZM1191.59 1055.38H1193.58V1058.74H1191.59V1055.38ZM1187.64 1048.57H1189.62V1050.7H1195.55V1048.57H1197.53V1055.8H1187.64V1048.57ZM1189.62 1052.26V1054.21H1195.55V1052.26H1189.62ZM1203.15 1048.44H1204.79V1049.67C1204.79 1052.43 1203.59 1054.86 1200.95 1055.77L1199.88 1054.2C1202.21 1053.42 1203.15 1051.56 1203.15 1049.67V1048.44ZM1203.56 1048.44H1205.18V1049.86C1205.18 1051.53 1206.11 1053.15 1208.28 1053.82L1207.25 1055.37C1204.74 1054.53 1203.56 1052.37 1203.56 1049.86V1048.44ZM1209.05 1047.69H1211.04V1055.89H1209.05V1047.69ZM1210.49 1050.9H1212.89V1052.55H1210.49V1050.9ZM1206.51 1056.21C1209.39 1056.21 1211.21 1057.21 1211.21 1058.89C1211.21 1060.59 1209.39 1061.58 1206.51 1061.58C1203.62 1061.58 1201.8 1060.59 1201.8 1058.89C1201.8 1057.21 1203.62 1056.21 1206.51 1056.21ZM1206.51 1057.75C1204.74 1057.75 1203.78 1058.13 1203.78 1058.89C1203.78 1059.67 1204.74 1060.03 1206.51 1060.03C1208.28 1060.03 1209.23 1059.67 1209.23 1058.89C1209.23 1058.13 1208.28 1057.75 1206.51 1057.75ZM1214.37 1048.71H1222.53V1050.13H1214.37V1048.71ZM1218.45 1050.46C1220.52 1050.46 1221.9 1051.29 1221.9 1052.55C1221.9 1053.82 1220.52 1054.63 1218.45 1054.63C1216.38 1054.63 1215 1053.82 1215 1052.55C1215 1051.29 1216.38 1050.46 1218.45 1050.46ZM1218.45 1051.78C1217.52 1051.78 1216.9 1052.04 1216.9 1052.55C1216.9 1053.04 1217.52 1053.31 1218.45 1053.31C1219.39 1053.31 1219.99 1053.04 1219.99 1052.55C1219.99 1052.04 1219.39 1051.78 1218.45 1051.78ZM1217.44 1047.6H1219.45V1049.43H1217.44V1047.6ZM1217.44 1053.9H1219.45V1055.83H1217.44V1053.9ZM1223.47 1047.7H1225.48V1057.11H1223.47V1047.7ZM1215.88 1057.65H1225.48V1061.58H1223.47V1059.18H1215.88V1057.65ZM1214.22 1056.84L1213.98 1055.32C1216.48 1055.32 1219.81 1055.31 1222.65 1054.95L1222.8 1056.28C1219.86 1056.79 1216.66 1056.84 1214.22 1056.84ZM1227.72 1054.26H1240.29V1055.83H1227.72V1054.26ZM1229.1 1057H1238.79V1061.61H1236.81V1058.59H1229.1V1057ZM1229.23 1051.57H1238.91V1053.15H1229.23V1051.57ZM1229.23 1048.15H1238.79V1049.73H1231.23V1052.37H1229.23V1048.15ZM1245.63 1055.87C1245.63 1057.19 1245.45 1058.41 1245.1 1059.52C1244.75 1060.64 1244.21 1061.67 1243.48 1062.61H1241.31C1241.59 1062.26 1241.85 1061.83 1242.08 1061.32C1242.32 1060.82 1242.53 1060.26 1242.71 1059.66C1242.89 1059.06 1243.02 1058.43 1243.12 1057.79C1243.22 1057.14 1243.27 1056.5 1243.27 1055.87C1243.27 1055.03 1243.19 1054.18 1243.01 1053.32C1242.84 1052.46 1242.61 1051.67 1242.31 1050.94C1242.01 1050.2 1241.68 1049.6 1241.31 1049.13H1243.48C1244.21 1050.08 1244.75 1051.11 1245.1 1052.22C1245.45 1053.33 1245.63 1054.55 1245.63 1055.87Z" fill="black"/>
<rect x="1069" y="942" width="133" height="48" fill="white" stroke="#250B34" stroke-width="2"/>
<path d="M1115.75 962.273H1118.99V963.878H1115.75V962.273ZM1117.94 958.703H1119.93V968.828H1117.94V958.703ZM1110.77 970.748H1120.25V972.338H1110.77V970.748ZM1110.77 967.973H1112.76V971.693H1110.77V967.973ZM1111.52 960.518H1113.14V961.388C1113.14 963.998 1111.91 966.413 1109.24 967.298L1108.23 965.708C1110.53 964.958 1111.52 963.143 1111.52 961.388V960.518ZM1111.94 960.518H1113.54V961.388C1113.54 963.008 1114.49 964.733 1116.68 965.468L1115.7 967.028C1113.12 966.173 1111.94 963.863 1111.94 961.388V960.518ZM1108.77 959.633H1116.24V961.208H1108.77V959.633ZM1122.11 966.923H1134.68V968.543H1122.11V966.923ZM1127.39 967.493H1129.37V972.593H1127.39V967.493ZM1123.67 964.343H1133.37V965.918H1123.67V964.343ZM1123.67 959.243H1133.22V960.803H1125.63V964.718H1123.67V959.243ZM1125.08 961.808H1132.92V963.323H1125.08V961.808ZM1141.17 965.393H1143.16V967.328H1141.17V965.393ZM1137.51 958.898H1139.47V959.813H1144.89V958.898H1146.87V963.548H1137.51V958.898ZM1139.47 961.268V962.078H1144.89V961.268H1139.47ZM1135.9 964.268H1148.46V965.843H1135.9V964.268ZM1137.34 966.713H1146.94V970.238H1139.32V971.498H1137.36V968.873H1144.98V968.168H1137.34V966.713ZM1137.36 971.003H1147.3V972.488H1137.36V971.003ZM1151.29 962.138H1160.88V963.728H1151.29V962.138ZM1151.29 958.913H1153.27V962.858H1151.29V958.913ZM1149.72 964.913H1162.29V966.503H1149.72V964.913ZM1155.96 967.388C1158.96 967.388 1160.77 968.318 1160.77 969.968C1160.77 971.603 1158.96 972.548 1155.96 972.548C1152.96 972.548 1151.13 971.603 1151.13 969.968C1151.13 968.318 1152.96 967.388 1155.96 967.388ZM1155.96 968.918C1154.1 968.918 1153.15 969.248 1153.15 969.968C1153.15 970.673 1154.1 971.018 1155.96 971.018C1157.82 971.018 1158.76 970.673 1158.76 969.968C1158.76 969.248 1157.82 968.918 1155.96 968.918Z" fill="black"/>
<rect x="1147" y="694" width="133" height="48" fill="white" stroke="#250B34" stroke-width="2"/>
<path d="M1187.13 717.379H1188.24C1190.72 717.379 1192.28 717.304 1194.05 716.974L1194.21 718.564C1192.41 718.894 1190.78 718.969 1188.24 718.969H1187.13V717.379ZM1187.13 711.634H1193.43V713.224H1189.11V717.784H1187.13V711.634ZM1195.94 710.689H1197.93V720.799H1195.94V710.689ZM1192.64 714.304H1196.31V715.879H1192.64V714.304ZM1188.75 722.779H1198.25V724.369H1188.75V722.779ZM1188.75 719.974H1190.76V723.814H1188.75V719.974ZM1207.55 714.274H1210.79V715.879H1207.55V714.274ZM1209.74 710.704H1211.73V720.829H1209.74V710.704ZM1202.57 722.749H1212.05V724.339H1202.57V722.749ZM1202.57 719.974H1204.56V723.694H1202.57V719.974ZM1203.32 712.519H1204.94V713.389C1204.94 715.999 1203.71 718.414 1201.04 719.299L1200.03 717.709C1202.33 716.959 1203.32 715.144 1203.32 713.389V712.519ZM1203.74 712.519H1205.34V713.389C1205.34 715.009 1206.29 716.734 1208.48 717.469L1207.5 719.029C1204.92 718.174 1203.74 715.864 1203.74 713.389V712.519ZM1200.57 711.634H1208.04V713.209H1200.57V711.634ZM1221 713.644H1224.22V715.249H1221V713.644ZM1217.08 711.544H1218.69V713.044C1218.69 715.879 1217.5 718.294 1214.88 719.254L1213.83 717.694C1216.12 716.929 1217.08 715.009 1217.08 713.044V711.544ZM1217.52 711.544H1219.11V713.059C1219.11 714.844 1220.02 716.629 1222.21 717.379L1221.15 718.909C1218.66 718.009 1217.52 715.684 1217.52 713.059V711.544ZM1223.53 710.704H1225.53V720.949H1223.53V710.704ZM1216.33 722.749H1225.83V724.339H1216.33V722.749ZM1216.33 719.914H1218.34V723.634H1216.33V719.914ZM1228.17 717.019H1229.13C1231.14 717.019 1232.43 716.989 1233.96 716.734L1234.14 718.324C1232.55 718.594 1231.2 718.639 1229.13 718.639H1228.17V717.019ZM1228.17 711.619H1233.64V713.209H1230.09V717.904H1228.17V711.619ZM1229.52 714.334H1233.49V715.834H1229.52V714.334ZM1237.65 710.689H1239.54V719.164H1237.65V710.689ZM1235.98 714.094H1238.19V715.684H1235.98V714.094ZM1234.68 710.944H1236.54V719.074H1234.68V710.944ZM1230 719.764H1239.54V724.579H1237.56V721.354H1230V719.764Z" fill="black"/>
<rect x="1146" y="593" width="133" height="48" fill="white" stroke="#250B34" stroke-width="2"/>
<path d="M1202.72 616.814H1204.72V619.859H1202.72V616.814ZM1208.81 609.689H1210.81V620.204H1208.81V609.689ZM1200.8 621.749H1211.11V623.339H1200.8V621.749ZM1200.8 619.214H1202.8V622.169H1200.8V619.214ZM1199.3 617.414L1199.06 615.824C1201.6 615.824 1204.99 615.794 1207.9 615.419L1208.02 616.844C1205.06 617.339 1201.81 617.414 1199.3 617.414ZM1206.19 617.759H1209.25V619.124H1206.19V617.759ZM1203.53 610.169C1205.56 610.169 1206.98 611.174 1206.98 612.644C1206.98 614.129 1205.56 615.119 1203.53 615.119C1201.49 615.119 1200.07 614.129 1200.07 612.644C1200.07 611.174 1201.49 610.169 1203.53 610.169ZM1203.53 611.624C1202.6 611.624 1201.96 611.969 1201.96 612.644C1201.96 613.319 1202.6 613.664 1203.53 613.664C1204.45 613.664 1205.09 613.319 1205.09 612.644C1205.09 611.969 1204.45 611.624 1203.53 611.624ZM1220.43 613.049H1223.07V614.669H1220.43V613.049ZM1222.53 609.689H1224.53V617.939H1222.53V609.689ZM1219.82 618.239C1222.76 618.239 1224.57 619.244 1224.57 620.924C1224.57 622.619 1222.76 623.594 1219.82 623.594C1216.88 623.594 1215.06 622.619 1215.06 620.924C1215.06 619.244 1216.88 618.239 1219.82 618.239ZM1219.82 619.754C1218.02 619.754 1217.06 620.129 1217.06 620.924C1217.06 621.704 1218.02 622.079 1219.82 622.079C1221.63 622.079 1222.59 621.704 1222.59 620.924C1222.59 620.129 1221.63 619.754 1219.82 619.754ZM1216.11 611.084H1217.73V611.954C1217.73 614.609 1216.5 617.039 1213.85 617.939L1212.83 616.364C1215.12 615.584 1216.11 613.739 1216.11 611.954V611.084ZM1216.53 611.084H1218.14V611.954C1218.14 613.589 1219.08 615.284 1221.27 616.019L1220.3 617.594C1217.72 616.739 1216.53 614.429 1216.53 611.954V611.084ZM1213.37 610.529H1220.84V612.119H1213.37V610.529Z" fill="black"/>
<rect x="925" y="403" width="134" height="48" fill="white" stroke="#250B34" stroke-width="2"/>
<path d="M963.381 415.354H965.676V416.974H963.381V415.354ZM960.411 411.889H961.941V414.229C961.941 417.379 961.071 420.454 958.851 421.819L957.651 420.319C959.691 419.059 960.411 416.584 960.411 414.229V411.889ZM960.846 411.889H962.346V414.139C962.346 416.404 962.931 418.714 964.821 419.944L963.741 421.504C961.536 420.139 960.846 417.139 960.846 414.139V411.889ZM967.941 410.689H969.846V424.579H967.941V410.689ZM965.121 410.899H966.981V423.949H965.121V410.899ZM981.23 410.674H983.24V424.609H981.23V410.674ZM975.755 411.649C977.855 411.649 979.4 413.569 979.4 416.599C979.4 419.659 977.855 421.579 975.755 421.579C973.655 421.579 972.11 419.659 972.11 416.599C972.11 413.569 973.655 411.649 975.755 411.649ZM975.755 413.464C974.72 413.464 974.015 414.559 974.015 416.599C974.015 418.669 974.72 419.779 975.755 419.779C976.79 419.779 977.48 418.669 977.48 416.599C977.48 414.559 976.79 413.464 975.755 413.464ZM985.519 421.294H998.089V422.929H985.519V421.294ZM986.839 411.589H988.819V413.839H994.744V411.589H996.724V418.999H986.839V411.589ZM988.819 415.384V417.424H994.744V415.384H988.819ZM999.482 411.964H1007.15V413.554H999.482V411.964ZM999.332 421.414L999.122 419.779C1001.54 419.779 1004.81 419.749 1007.55 419.404L1007.66 420.859C1004.85 421.354 1001.7 421.414 999.332 421.414ZM1000.67 413.209H1002.6V420.214H1000.67V413.209ZM1004.03 413.209H1005.96V420.214H1004.03V413.209ZM1008.18 410.689H1010.19V424.579H1008.18V410.689ZM1009.74 415.954H1012.2V417.589H1009.74V415.954ZM1017.02 411.094C1019.13 411.094 1020.72 412.414 1020.72 414.274C1020.72 416.119 1019.13 417.439 1017.02 417.439C1014.9 417.439 1013.31 416.119 1013.31 414.274C1013.31 412.414 1014.9 411.094 1017.02 411.094ZM1017.02 412.714C1016 412.714 1015.23 413.284 1015.23 414.274C1015.23 415.264 1016 415.834 1017.02 415.834C1018.04 415.834 1018.79 415.264 1018.79 414.274C1018.79 413.284 1018.04 412.714 1017.02 412.714ZM1022.64 410.689H1024.65V417.634H1022.64V410.689ZM1015.38 418.204H1024.65V422.014H1017.36V423.694H1015.41V420.574H1022.67V419.749H1015.38V418.204ZM1015.41 422.884H1025V424.429H1015.41V422.884ZM985.699 431.644H988.924V433.249H985.699V431.644ZM981.784 429.544H983.389V431.044C983.389 433.879 982.204 436.294 979.579 437.254L978.529 435.694C980.824 434.929 981.784 433.009 981.784 431.044V429.544ZM982.219 429.544H983.809V431.059C983.809 432.844 984.724 434.629 986.914 435.379L985.849 436.909C983.359 436.009 982.219 433.684 982.219 431.059V429.544ZM988.234 428.704H990.229V438.949H988.234V428.704ZM981.034 440.749H990.529V442.339H981.034V440.749ZM981.034 437.914H983.044V441.634H981.034V437.914ZM992.868 435.019H993.828C995.838 435.019 997.128 434.989 998.658 434.734L998.838 436.324C997.248 436.594 995.898 436.639 993.828 436.639H992.868V435.019ZM992.868 429.619H998.343V431.209H994.788V435.904H992.868V429.619ZM994.218 432.334H998.193V433.834H994.218V432.334ZM1002.35 428.689H1004.24V437.164H1002.35V428.689ZM1000.68 432.094H1002.89V433.684H1000.68V432.094ZM999.378 428.944H1001.24V437.074H999.378V428.944ZM994.698 437.764H1004.24V442.579H1002.26V439.354H994.698V437.764Z" fill="black"/>
<rect x="689" y="321" width="134" height="48" fill="white" stroke="#250B34" stroke-width="2"/>
<path d="M731.37 338.889H732.9V341.229C732.9 344.379 732.015 347.439 729.78 348.789L728.55 347.319C730.62 346.074 731.37 343.584 731.37 341.229V338.889ZM731.76 338.889H733.305V341.079C733.305 343.479 733.935 345.744 735.87 346.809L734.715 348.384C732.465 347.124 731.76 344.259 731.76 341.079V338.889ZM738.84 337.689H740.745V351.579H738.84V337.689ZM737.175 343.089H739.47V344.694H737.175V343.089ZM735.84 337.899H737.715V350.949H735.84V337.899ZM742.619 348.429H755.189V350.049H742.619V348.429ZM747.884 345.804H749.879V349.089H747.884V345.804ZM744.029 338.589H753.779V343.209H746.039V345.549H744.059V341.649H751.799V340.164H744.029V338.589ZM744.059 344.754H754.094V346.359H744.059V344.754ZM765.313 337.689H767.293V351.579H765.313V337.689ZM766.843 343.104H769.303V344.769H766.843V343.104ZM756.343 339.744H764.428V341.334H756.343V339.744ZM760.408 342.114C762.433 342.114 763.933 343.494 763.933 345.429C763.933 347.364 762.433 348.744 760.408 348.744C758.383 348.744 756.883 347.364 756.883 345.429C756.883 343.494 758.383 342.114 760.408 342.114ZM760.408 343.734C759.463 343.734 758.788 344.364 758.788 345.429C758.788 346.494 759.463 347.124 760.408 347.124C761.353 347.124 762.028 346.494 762.028 345.429C762.028 344.364 761.353 343.734 760.408 343.734ZM759.403 337.914H761.398V340.344H759.403V337.914ZM779.772 337.689H781.782V351.579H779.772V337.689ZM775.677 339.129H777.657C777.657 343.374 776.217 346.854 771.282 349.239L770.247 347.649C774.237 345.729 775.677 343.209 775.677 339.489V339.129ZM770.982 339.129H776.622V340.704H770.982V339.129Z" fill="black"/>
<rect x="1091" y="320" width="137" height="50" stroke="black"/>
<rect x="1092" y="321" width="135" height="48" fill="white" stroke="#250B34" stroke-width="2"/>
<path d="M1152.39 337.839C1155.46 337.839 1157.41 338.814 1157.41 340.464C1157.41 342.114 1155.46 343.089 1152.39 343.089C1149.31 343.089 1147.36 342.114 1147.36 340.464C1147.36 338.814 1149.31 337.839 1152.39 337.839ZM1152.39 339.324C1150.47 339.324 1149.42 339.699 1149.42 340.464C1149.42 341.199 1150.47 341.589 1152.39 341.589C1154.29 341.589 1155.36 341.199 1155.36 340.464C1155.36 339.699 1154.29 339.324 1152.39 339.324ZM1147.57 346.164H1149.54V347.244H1155.18V346.164H1157.16V351.429H1147.57V346.164ZM1149.54 348.729V349.854H1155.18V348.729H1149.54ZM1146.1 343.959H1158.66V345.549H1146.1V343.959ZM1151.37 342.609H1153.35V344.649H1151.37V342.609ZM1167.24 339.489H1170V341.094H1167.24V339.489ZM1167.24 342.174H1170V343.764H1167.24V342.174ZM1163.08 338.484H1164.69V340.074C1164.69 342.954 1163.52 345.444 1160.89 346.419L1159.83 344.859C1162.12 344.049 1163.08 342.099 1163.08 340.074V338.484ZM1163.5 338.484H1165.11V340.074C1165.11 341.979 1166.01 343.884 1168.2 344.709L1167.1 346.254C1164.64 345.279 1163.5 342.834 1163.5 340.074V338.484ZM1169.53 337.704H1171.53V347.979H1169.53V337.704ZM1162.33 349.749H1171.83V351.339H1162.33V349.749ZM1162.33 347.034H1164.34V350.754H1162.33V347.034Z" fill="black"/>
<rect x="522" y="321" width="133" height="48" fill="white" stroke="#250B34" stroke-width="2"/>
<path d="M567.517 337.329C570.517 337.329 572.437 338.319 572.437 339.969C572.437 341.589 570.517 342.579 567.517 342.579C564.517 342.579 562.597 341.589 562.597 339.969C562.597 338.319 564.517 337.329 567.517 337.329ZM567.517 338.829C565.642 338.829 564.577 339.219 564.577 339.969C564.577 340.704 565.642 341.079 567.517 341.079C569.392 341.079 570.457 340.704 570.457 339.969C570.457 339.219 569.392 338.829 567.517 338.829ZM562.747 329.304H571.537V330.879H562.747V329.304ZM561.337 334.884H573.847V336.474H561.337V334.884ZM565.972 332.469H567.952V335.289H565.972V332.469ZM570.382 329.304H572.362V330.444C572.362 331.539 572.362 332.724 571.987 334.164L570.007 333.954C570.382 332.529 570.382 331.524 570.382 330.444V329.304ZM578.45 330.879H580.04V332.439C580.04 335.649 578.735 338.784 576.125 339.969L575 338.394C577.325 337.359 578.45 334.794 578.45 332.439V330.879ZM578.9 330.879H580.475V332.439C580.475 334.689 581.585 337.089 583.91 338.049L582.83 339.624C580.19 338.484 578.9 335.529 578.9 332.439V330.879ZM575.555 330.024H583.34V331.659H575.555V330.024ZM584.63 328.689H586.64V342.579H584.63V328.689ZM592.024 329.754H593.644V331.779C593.644 335.214 592.444 338.439 589.819 339.729L588.619 338.124C590.959 337.029 592.024 334.359 592.024 331.779V329.754ZM592.429 329.754H594.019V331.779C594.019 334.269 595.009 336.804 597.229 337.884L596.029 339.474C593.524 338.199 592.429 335.109 592.429 331.779V329.754ZM597.784 328.689H599.794V342.579H597.784V328.689ZM599.344 334.029H601.804V335.694H599.344V334.029ZM611.643 328.689H613.638V337.494H611.643V328.689ZM613.083 332.229H615.483V333.864H613.083V332.229ZM609.123 337.644C611.988 337.644 613.788 338.559 613.788 340.119C613.788 341.664 611.988 342.579 609.123 342.579C606.258 342.579 604.458 341.664 604.458 340.119C604.458 338.559 606.258 337.644 609.123 337.644ZM609.123 339.144C607.368 339.144 606.438 339.459 606.438 340.119C606.438 340.779 607.368 341.094 609.123 341.094C610.878 341.094 611.808 340.779 611.808 340.119C611.808 339.459 610.878 339.144 609.123 339.144ZM602.703 330.009H610.878V331.554H602.703V330.009ZM606.798 332.019C608.808 332.019 610.203 333.024 610.203 334.509C610.203 336.009 608.808 336.999 606.798 336.999C604.773 336.999 603.378 336.009 603.378 334.509C603.378 333.024 604.773 332.019 606.798 332.019ZM606.798 333.474C605.898 333.474 605.298 333.834 605.298 334.509C605.298 335.184 605.898 335.544 606.798 335.544C607.683 335.544 608.298 335.184 608.298 334.509C608.298 333.834 607.683 333.474 606.798 333.474ZM605.793 328.599H607.788V330.834H605.793V328.599ZM568.327 349.749H571.807V351.354H568.327V349.749ZM565.147 347.259C567.232 347.259 568.807 348.654 568.807 350.574C568.807 352.509 567.232 353.889 565.147 353.889C563.047 353.889 561.472 352.509 561.472 350.574C561.472 348.654 563.047 347.259 565.147 347.259ZM565.147 348.924C564.127 348.924 563.377 349.539 563.377 350.574C563.377 351.609 564.127 352.239 565.147 352.239C566.167 352.239 566.902 351.609 566.902 350.574C566.902 349.539 566.167 348.924 565.147 348.924ZM570.937 346.689H572.932V354.159H570.937V346.689ZM563.707 354.759H565.687V356.079H570.952V354.759H572.932V360.429H563.707V354.759ZM565.687 357.609V358.839H570.952V357.609H565.687ZM585.14 346.689H587.045V360.579H585.14V346.689ZM579.86 351.759H583.085V353.364H579.86V351.759ZM582.275 346.929H584.135V359.964H582.275V346.929ZM575.51 355.854H576.47C578.435 355.854 579.74 355.809 581.27 355.509L581.42 357.129C579.875 357.444 578.495 357.504 576.47 357.504H575.51V355.854ZM575.51 348.249H580.805V349.839H577.475V356.544H575.51V348.249ZM598.429 346.674H600.439V360.609H598.429V346.674ZM592.954 347.649C595.054 347.649 596.599 349.569 596.599 352.599C596.599 355.659 595.054 357.579 592.954 357.579C590.854 357.579 589.309 355.659 589.309 352.599C589.309 349.569 590.854 347.649 592.954 347.649ZM592.954 349.464C591.919 349.464 591.214 350.559 591.214 352.599C591.214 354.669 591.919 355.779 592.954 355.779C593.989 355.779 594.679 354.669 594.679 352.599C594.679 350.559 593.989 349.464 592.954 349.464ZM604.188 353.844H613.953V355.404H604.188V353.844ZM602.718 357.369H615.288V358.989H602.718V357.369ZM604.188 347.694H613.833V349.299H606.213V354.279H604.188V347.694ZM605.598 350.754H613.518V352.299H605.598V350.754Z" fill="black"/>
<rect x="808" y="491" width="133" height="48" fill="white" stroke="#250B34" stroke-width="2"/>
<path d="M843.236 509.114H848.726V518.114H843.236V509.114ZM846.866 510.674H845.096V516.554H846.866V510.674ZM852.881 507.689H854.786V521.579H852.881V507.689ZM847.721 512.729H850.841V514.334H847.721V512.729ZM850.046 507.899H851.921V520.949H850.046V507.899ZM866.185 507.704H868.195V517.679H866.185V507.704ZM858.94 519.749H868.54V521.339H858.94V519.749ZM858.94 516.674H860.935V520.394H858.94V516.674ZM860.635 508.574C862.765 508.574 864.4 510.044 864.4 512.099C864.4 514.139 862.765 515.624 860.635 515.624C858.505 515.624 856.855 514.139 856.855 512.099C856.855 510.044 858.505 508.574 860.635 508.574ZM860.635 510.299C859.6 510.299 858.805 510.959 858.805 512.099C858.805 513.224 859.6 513.884 860.635 513.884C861.655 513.884 862.45 513.224 862.45 512.099C862.45 510.959 861.655 510.299 860.635 510.299ZM874.264 520.244V509.334H876.57V513.836H881.252V509.334H883.553V520.244H881.252V515.737H876.57V520.244H874.264ZM892.193 509.334H894.5V516.419C894.5 517.214 894.31 517.91 893.93 518.507C893.553 519.104 893.026 519.569 892.348 519.903C891.67 520.233 890.879 520.398 889.977 520.398C889.072 520.398 888.28 520.233 887.602 519.903C886.923 519.569 886.396 519.104 886.02 518.507C885.643 517.91 885.455 517.214 885.455 516.419V509.334H887.761V516.222C887.761 516.637 887.852 517.007 888.033 517.33C888.218 517.653 888.477 517.907 888.811 518.092C889.145 518.276 889.534 518.369 889.977 518.369C890.425 518.369 890.814 518.276 891.144 518.092C891.478 517.907 891.735 517.653 891.916 517.33C892.101 517.007 892.193 516.637 892.193 516.222V509.334ZM900.265 520.244H896.397V509.334H900.297C901.394 509.334 902.338 509.553 903.13 509.99C903.922 510.423 904.531 511.046 904.957 511.859C905.387 512.673 905.602 513.646 905.602 514.778C905.602 515.915 905.387 516.891 904.957 517.708C904.531 518.525 903.919 519.152 903.12 519.588C902.324 520.025 901.373 520.244 900.265 520.244ZM898.704 518.267H900.169C900.851 518.267 901.424 518.147 901.889 517.905C902.358 517.66 902.71 517.282 902.944 516.771C903.182 516.256 903.301 515.592 903.301 514.778C903.301 513.972 903.182 513.313 902.944 512.802C902.71 512.291 902.36 511.914 901.895 511.673C901.429 511.431 900.856 511.311 900.174 511.311H898.704V518.267Z" fill="black"/>
<rect x="1499" y="593" width="135" height="48" fill="white" stroke="#250B34" stroke-width="2"/>
<path d="M1551.44 610.094H1553.19V610.739C1553.19 613.409 1551.09 615.674 1547.45 616.214L1546.67 614.609C1549.86 614.189 1551.44 612.374 1551.44 610.739V610.094ZM1551.81 610.094H1553.55V610.739C1553.55 612.359 1555.14 614.189 1558.32 614.609L1557.56 616.214C1553.91 615.674 1551.81 613.409 1551.81 610.739V610.094ZM1551.45 618.494H1553.43V623.579H1551.45V618.494ZM1546.22 617.234H1558.77V618.854H1546.22V617.234ZM1563.23 610.409H1564.89V611.654C1564.89 614.444 1563.65 616.889 1560.92 617.804L1559.88 616.199C1562.25 615.434 1563.23 613.559 1563.23 611.654V610.409ZM1563.65 610.409H1565.25V611.564C1565.25 613.409 1566.15 615.119 1568.36 615.824L1567.32 617.384C1564.76 616.499 1563.65 614.264 1563.65 611.564V610.409ZM1569.63 609.689H1571.63V617.819H1569.63V609.689ZM1566.92 618.179C1569.86 618.179 1571.67 619.184 1571.67 620.879C1571.67 622.589 1569.86 623.579 1566.92 623.579C1563.98 623.579 1562.16 622.589 1562.16 620.879C1562.16 619.184 1563.98 618.179 1566.92 618.179ZM1566.92 619.724C1565.12 619.724 1564.16 620.099 1564.16 620.879C1564.16 621.659 1565.12 622.049 1566.92 622.049C1568.73 622.049 1569.69 621.659 1569.69 620.879C1569.69 620.099 1568.73 619.724 1566.92 619.724ZM1567.1 612.209H1569.92V613.829H1567.1V612.209ZM1581.24 613.274H1584.48V614.879H1581.24V613.274ZM1583.43 609.704H1585.43V619.829H1583.43V609.704ZM1576.26 621.749H1585.74V623.339H1576.26V621.749ZM1576.26 618.974H1578.26V622.694H1576.26V618.974ZM1577.01 611.519H1578.63V612.389C1578.63 614.999 1577.4 617.414 1574.73 618.299L1573.73 616.709C1576.02 615.959 1577.01 614.144 1577.01 612.389V611.519ZM1577.43 611.519H1579.04V612.389C1579.04 614.009 1579.98 615.734 1582.17 616.469L1581.2 618.029C1578.62 617.174 1577.43 614.864 1577.43 612.389V611.519ZM1574.27 610.634H1581.74V612.209H1574.27V610.634Z" fill="black"/>
<rect x="1501" y="774" width="134" height="48" fill="white" stroke="#250B34" stroke-width="2"/>
<path d="M1537.09 791.093H1538.85V791.738C1538.85 794.408 1536.75 796.673 1533.1 797.213L1532.32 795.608C1535.52 795.188 1537.09 793.373 1537.09 791.738V791.093ZM1537.47 791.093H1539.21V791.738C1539.21 793.358 1540.8 795.188 1543.98 795.608L1543.21 797.213C1539.57 796.673 1537.47 794.408 1537.47 791.738V791.093ZM1537.11 799.493H1539.09V804.578H1537.11V799.493ZM1531.87 798.233H1544.43V799.853H1531.87V798.233ZM1548.88 791.408H1550.54V792.653C1550.54 795.443 1549.3 797.888 1546.57 798.803L1545.53 797.198C1547.9 796.433 1548.88 794.558 1548.88 792.653V791.408ZM1549.3 791.408H1550.9V792.563C1550.9 794.408 1551.8 796.118 1554.01 796.823L1552.97 798.383C1550.41 797.498 1549.3 795.263 1549.3 792.563V791.408ZM1555.28 790.688H1557.28V798.818H1555.28V790.688ZM1552.57 799.178C1555.51 799.178 1557.32 800.183 1557.32 801.878C1557.32 803.588 1555.51 804.578 1552.57 804.578C1549.63 804.578 1547.81 803.588 1547.81 801.878C1547.81 800.183 1549.63 799.178 1552.57 799.178ZM1552.57 800.723C1550.77 800.723 1549.81 801.098 1549.81 801.878C1549.81 802.658 1550.77 803.048 1552.57 803.048C1554.38 803.048 1555.34 802.658 1555.34 801.878C1555.34 801.098 1554.38 800.723 1552.57 800.723ZM1552.75 793.208H1555.57V794.828H1552.75V793.208ZM1566.89 794.273H1570.13V795.878H1566.89V794.273ZM1569.08 790.703H1571.08V800.828H1569.08V790.703ZM1561.91 802.748H1571.39V804.338H1561.91V802.748ZM1561.91 799.973H1563.91V803.693H1561.91V799.973ZM1562.66 792.518H1564.28V793.388C1564.28 795.998 1563.05 798.413 1560.38 799.298L1559.38 797.708C1561.67 796.958 1562.66 795.143 1562.66 793.388V792.518ZM1563.08 792.518H1564.69V793.388C1564.69 795.008 1565.63 796.733 1567.82 797.468L1566.85 799.028C1564.27 798.173 1563.08 795.863 1563.08 793.388V792.518ZM1559.92 791.633H1567.39V793.208H1559.92V791.633ZM1579.3 798.513V803.243H1577.03V792.334H1579.23V796.505H1579.33C1579.51 796.022 1579.81 795.644 1580.22 795.371C1580.64 795.094 1581.15 794.955 1581.77 794.955C1582.34 794.955 1582.84 795.079 1583.26 795.328C1583.69 795.573 1584.02 795.926 1584.25 796.388C1584.49 796.846 1584.61 797.395 1584.6 798.034V803.243H1582.33V798.439C1582.34 797.935 1582.21 797.542 1581.95 797.262C1581.7 796.981 1581.34 796.841 1580.87 796.841C1580.57 796.841 1580.29 796.906 1580.05 797.038C1579.82 797.169 1579.64 797.361 1579.5 797.613C1579.37 797.862 1579.3 798.162 1579.3 798.513ZM1591.64 799.76V795.062H1593.91V803.243H1591.73V801.757H1591.64C1591.46 802.237 1591.15 802.622 1590.72 802.913C1590.29 803.204 1589.77 803.35 1589.16 803.35C1588.61 803.35 1588.13 803.226 1587.72 802.977C1587.3 802.729 1586.98 802.375 1586.74 801.917C1586.51 801.459 1586.39 800.91 1586.39 800.271V795.062H1588.66V799.866C1588.66 800.349 1588.79 800.731 1589.05 801.012C1589.3 801.292 1589.65 801.432 1590.08 801.432C1590.35 801.432 1590.6 801.37 1590.84 801.246C1591.08 801.118 1591.27 800.93 1591.42 800.681C1591.57 800.433 1591.64 800.126 1591.64 799.76ZM1598.74 803.377C1598.11 803.377 1597.55 803.217 1597.05 802.897C1596.55 802.574 1596.15 802.1 1595.85 801.475C1595.56 800.846 1595.42 800.076 1595.42 799.163C1595.42 798.226 1595.57 797.446 1595.87 796.825C1596.17 796.2 1596.57 795.733 1597.07 795.424C1597.58 795.111 1598.13 794.955 1598.73 794.955C1599.19 794.955 1599.57 795.033 1599.88 795.19C1600.18 795.342 1600.43 795.534 1600.62 795.765C1600.81 795.992 1600.96 796.216 1601.06 796.436H1601.13V792.334H1603.39V803.243H1601.15V801.933H1601.06C1600.95 802.16 1600.8 802.386 1600.6 802.61C1600.41 802.83 1600.16 803.013 1599.85 803.158C1599.55 803.304 1599.18 803.377 1598.74 803.377ZM1599.45 801.571C1599.82 801.571 1600.13 801.471 1600.38 801.273C1600.64 801.07 1600.83 800.788 1600.97 800.426C1601.11 800.063 1601.17 799.639 1601.17 799.153C1601.17 798.666 1601.11 798.243 1600.97 797.885C1600.84 797.526 1600.64 797.249 1600.39 797.054C1600.13 796.859 1599.82 796.761 1599.45 796.761C1599.08 796.761 1598.77 796.862 1598.51 797.065C1598.26 797.267 1598.06 797.547 1597.93 797.906C1597.8 798.265 1597.73 798.68 1597.73 799.153C1597.73 799.628 1597.8 800.049 1597.93 800.415C1598.07 800.777 1598.26 801.061 1598.51 801.267C1598.77 801.47 1599.08 801.571 1599.45 801.571Z" fill="black"/>
<rect x="1420" y="853" width="134" height="48" fill="white" stroke="#250B34" stroke-width="2"/>
<path d="M1483.64 869.688H1485.54V883.578H1483.64V869.688ZM1481.97 875.013H1484.27V876.633H1481.97V875.013ZM1480.71 869.928H1482.57V882.918H1480.71V869.928ZM1473.71 871.248H1480.05V872.838H1473.71V871.248ZM1473.68 880.428L1473.47 878.808C1475.19 878.808 1478.09 878.763 1480.16 878.478L1480.29 879.918C1478.16 880.383 1475.37 880.428 1473.68 880.428ZM1474.58 872.268H1476.36V879.228H1474.58V872.268ZM1477.4 872.268H1479.18V879.228H1477.4V872.268ZM1487.79 870.918H1489.67V874.038H1491.44V870.918H1493.28V880.293H1487.79V870.918ZM1489.67 875.598V878.703H1491.44V875.598H1489.67ZM1497.44 869.688H1499.34V883.578H1497.44V869.688ZM1495.73 874.983H1498.04V876.588H1495.73V874.983ZM1494.39 869.898H1496.27V882.948H1494.39V869.898Z" fill="black"/>
<rect x="1592" y="853" width="135" height="48" fill="white" stroke="#250B34" stroke-width="2"/>
<path d="M1652.51 869.178C1655.39 869.178 1657.2 870.183 1657.2 871.878C1657.2 873.588 1655.39 874.593 1652.51 874.593C1649.61 874.593 1647.8 873.588 1647.8 871.878C1647.8 870.183 1649.61 869.178 1652.51 869.178ZM1652.51 870.738C1650.74 870.738 1649.78 871.098 1649.78 871.878C1649.78 872.673 1650.74 873.048 1652.51 873.048C1654.28 873.048 1655.22 872.673 1655.22 871.878C1655.22 871.098 1654.28 870.738 1652.51 870.738ZM1655.04 860.688H1657.04V868.863H1655.04V860.688ZM1656.48 863.913H1658.88V865.563H1656.48V863.913ZM1646.51 861.573H1648.49V863.283H1651.2V861.573H1653.18V868.098H1646.51V861.573ZM1648.49 864.828V866.538H1651.2V864.828H1648.49ZM1663.71 861.648C1665.78 861.648 1667.3 863.568 1667.3 866.598C1667.3 869.658 1665.78 871.578 1663.71 871.578C1661.63 871.578 1660.13 869.658 1660.13 866.598C1660.13 863.568 1661.63 861.648 1663.71 861.648ZM1663.71 863.463C1662.71 863.463 1662.03 864.558 1662.03 866.598C1662.03 868.668 1662.71 869.778 1663.71 869.778C1664.73 869.778 1665.39 868.668 1665.39 866.598C1665.39 864.558 1664.73 863.463 1663.71 863.463ZM1669.58 860.673H1671.56V874.608H1669.58V860.673ZM1666.71 865.683H1670.42V867.288H1666.71V865.683ZM1626.97 886.87C1626.97 885.549 1627.15 884.333 1627.5 883.221C1627.85 882.11 1628.4 881.08 1629.12 880.132H1631.29C1631.02 880.484 1630.76 880.913 1630.52 881.421C1630.28 881.925 1630.07 882.479 1629.9 883.083C1629.72 883.687 1629.58 884.312 1629.48 884.958C1629.38 885.601 1629.33 886.238 1629.33 886.87C1629.33 887.712 1629.42 888.562 1629.59 889.422C1629.76 890.278 1630 891.073 1630.29 891.808C1630.59 892.543 1630.92 893.145 1631.29 893.614H1629.12C1628.4 892.666 1627.85 891.636 1627.5 890.524C1627.15 889.413 1626.97 888.195 1626.97 886.87ZM1632.32 889.353H1644.89V890.973H1632.32V889.353ZM1637.58 886.383H1639.58V889.743H1637.58V886.383ZM1633.64 879.573H1635.62V881.703H1641.54V879.573H1643.52V886.803H1633.64V879.573ZM1635.62 883.263V885.213H1641.54V883.263H1635.62ZM1649.15 879.438H1650.78V880.668C1650.78 883.428 1649.58 885.858 1646.94 886.773L1645.88 885.198C1648.2 884.418 1649.15 882.558 1649.15 880.668V879.438ZM1649.55 879.438H1651.17V880.863C1651.17 882.528 1652.1 884.148 1654.28 884.823L1653.24 886.368C1650.74 885.528 1649.55 883.368 1649.55 880.863V879.438ZM1655.04 878.688H1657.04V886.893H1655.04V878.688ZM1656.48 881.898H1658.88V883.548H1656.48V881.898ZM1652.51 887.208C1655.39 887.208 1657.2 888.213 1657.2 889.893C1657.2 891.588 1655.39 892.578 1652.51 892.578C1649.61 892.578 1647.8 891.588 1647.8 889.893C1647.8 888.213 1649.61 887.208 1652.51 887.208ZM1652.51 888.753C1650.74 888.753 1649.78 889.128 1649.78 889.893C1649.78 890.673 1650.74 891.033 1652.51 891.033C1654.28 891.033 1655.22 890.673 1655.22 889.893C1655.22 889.128 1654.28 888.753 1652.51 888.753ZM1660.37 879.708H1668.53V881.133H1660.37V879.708ZM1664.45 881.463C1666.52 881.463 1667.9 882.288 1667.9 883.548C1667.9 884.823 1666.52 885.633 1664.45 885.633C1662.38 885.633 1661 884.823 1661 883.548C1661 882.288 1662.38 881.463 1664.45 881.463ZM1664.45 882.783C1663.52 882.783 1662.9 883.038 1662.9 883.548C1662.9 884.043 1663.52 884.313 1664.45 884.313C1665.39 884.313 1665.99 884.043 1665.99 883.548C1665.99 883.038 1665.39 882.783 1664.45 882.783ZM1663.44 878.598H1665.45V880.428H1663.44V878.598ZM1663.44 884.898H1665.45V886.833H1663.44V884.898ZM1669.47 878.703H1671.48V888.108H1669.47V878.703ZM1661.88 888.648H1671.48V892.578H1669.47V890.178H1661.88V888.648ZM1660.22 887.838L1659.98 886.323C1662.48 886.323 1665.81 886.308 1668.65 885.948L1668.8 887.283C1665.86 887.793 1662.66 887.838 1660.22 887.838ZM1673.72 885.258H1686.29V886.833H1673.72V885.258ZM1675.1 888.003H1684.79V892.608H1682.81V889.593H1675.1V888.003ZM1675.23 882.573H1684.91V884.148H1675.23V882.573ZM1675.23 879.153H1684.79V880.728H1677.23V883.368H1675.23V879.153ZM1691.63 886.87C1691.63 888.195 1691.45 889.413 1691.1 890.524C1690.74 891.636 1690.21 892.666 1689.48 893.614H1687.31C1687.59 893.262 1687.84 892.833 1688.08 892.325C1688.32 891.817 1688.53 891.263 1688.7 890.663C1688.88 890.059 1689.02 889.434 1689.12 888.788C1689.22 888.142 1689.27 887.502 1689.27 886.87C1689.27 886.029 1689.18 885.18 1689.01 884.324C1688.84 883.465 1688.6 882.669 1688.31 881.938C1688.01 881.203 1687.68 880.601 1687.31 880.132H1689.48C1690.21 881.08 1690.74 882.11 1691.1 883.221C1691.45 884.333 1691.63 885.549 1691.63 886.87Z" fill="black"/>
<rect x="1501" y="694" width="134" height="48" fill="white" stroke="#250B34" stroke-width="2"/>
<path d="M1548.25 714.274H1551.49V715.879H1548.25V714.274ZM1550.44 710.704H1552.43V720.829H1550.44V710.704ZM1543.27 722.749H1552.75V724.339H1543.27V722.749ZM1543.27 719.974H1545.26V723.694H1543.27V719.974ZM1544.02 712.519H1545.64V713.389C1545.64 715.999 1544.41 718.414 1541.74 719.299L1540.73 717.709C1543.03 716.959 1544.02 715.144 1544.02 713.389V712.519ZM1544.44 712.519H1546.04V713.389C1546.04 715.009 1546.99 716.734 1549.18 717.469L1548.2 719.029C1545.62 718.174 1544.44 715.864 1544.44 713.389V712.519ZM1541.27 711.634H1548.74V713.209H1541.27V711.634ZM1554.6 718.924H1567.17V720.544H1554.6V718.924ZM1559.88 719.494H1561.86V724.594H1559.88V719.494ZM1556.16 716.344H1565.87V717.919H1556.16V716.344ZM1556.16 711.244H1565.72V712.804H1558.13V716.719H1556.16V711.244ZM1557.57 713.809H1565.42V715.324H1557.57V713.809ZM1568.79 711.919H1570.67V715.039H1572.44V711.919H1574.28V721.294H1568.79V711.919ZM1570.67 716.599V719.704H1572.44V716.599H1570.67ZM1578.44 710.689H1580.34V724.579H1578.44V710.689ZM1576.73 715.984H1579.04V717.589H1576.73V715.984ZM1575.39 710.899H1577.27V723.949H1575.39V710.899ZM1591.74 710.689H1593.75V724.579H1591.74V710.689ZM1585.62 714.289H1587.2V715.009C1587.2 717.949 1585.89 720.904 1583.33 722.014L1582.26 720.484C1584.54 719.464 1585.62 717.109 1585.62 715.009V714.289ZM1586.06 714.289H1587.62V715.009C1587.62 717.004 1588.71 719.284 1591.01 720.259L1589.94 721.789C1587.38 720.724 1586.06 717.859 1586.06 715.009V714.289ZM1582.73 712.954H1590.45V714.529H1582.73V712.954ZM1585.62 711.004H1587.62V713.764H1585.62V711.004Z" fill="black"/>
<path d="M873.293 96.7071C873.683 97.0976 874.317 97.0976 874.707 96.7071L881.071 90.3431C881.462 89.9526 881.462 89.3195 881.071 88.9289C880.681 88.5384 880.047 88.5384 879.657 88.9289L874 94.5858L868.343 88.9289C867.953 88.5384 867.319 88.5384 866.929 88.9289C866.538 89.3195 866.538 89.9526 866.929 90.3431L873.293 96.7071ZM873 69V96H875V69H873Z" fill="black"/>
<path d="M873.293 257.707C873.683 258.098 874.317 258.098 874.707 257.707L881.071 251.343C881.462 250.953 881.462 250.319 881.071 249.929C880.681 249.538 880.047 249.538 879.657 249.929L874 255.586L868.343 249.929C867.953 249.538 867.319 249.538 866.929 249.929C866.538 250.319 866.538 250.953 866.929 251.343L873.293 257.707ZM873 230V257H875V230H873Z" fill="black"/>
<path d="M991 290.988C990.993 290.435 990.54 289.993 989.988 290C989.435 290.007 988.993 290.46 989 291.012L991 290.988ZM989.633 318.712C990.028 319.097 990.661 319.09 991.047 318.694L997.332 312.253C997.718 311.858 997.71 311.224 997.315 310.839C996.92 310.453 996.286 310.461 995.901 310.856L990.314 316.582L984.588 310.995C984.193 310.609 983.559 310.617 983.174 311.012C982.788 311.407 982.796 312.04 983.191 312.426L989.633 318.712ZM989 291.012L989.331 318.008L991.331 317.984L991 290.988L989 291.012Z" fill="black"/>
<path d="M991 372.988C990.993 372.435 990.54 371.993 989.988 372C989.435 372.007 988.993 372.46 989 373.012L991 372.988ZM989.633 400.712C990.028 401.097 990.661 401.09 991.047 400.694L997.332 394.253C997.718 393.858 997.71 393.224 997.315 392.839C996.92 392.453 996.286 392.461 995.901 392.856L990.314 398.582L984.588 392.995C984.193 392.609 983.559 392.617 983.174 393.012C982.788 393.407 982.796 394.04 983.191 394.426L989.633 400.712ZM989 373.012L989.331 400.008L991.331 399.984L991 372.988L989 373.012Z" fill="black"/>
<path d="M875 461.988C874.993 461.435 874.54 460.993 873.988 461C873.435 461.007 872.993 461.46 873 462.012L875 461.988ZM873.633 489.712C874.028 490.097 874.661 490.09 875.047 489.694L881.332 483.253C881.718 482.858 881.71 482.224 881.315 481.839C880.92 481.453 880.286 481.461 879.901 481.856L874.314 487.582L868.588 481.995C868.193 481.609 867.559 481.617 867.174 482.012C866.788 482.407 866.796 483.04 867.191 483.426L873.633 489.712ZM873 462.012L873.331 489.008L875.331 488.984L875 461.988L873 462.012Z" fill="black"/>
<path d="M875 461.988C874.993 461.435 874.54 460.993 873.988 461C873.435 461.007 872.993 461.46 873 462.012L875 461.988ZM873.633 489.712C874.028 490.097 874.661 490.09 875.047 489.694L881.332 483.253C881.718 482.858 881.71 482.224 881.315 481.839C880.92 481.453 880.286 481.461 879.901 481.856L874.314 487.582L868.588 481.995C868.193 481.609 867.559 481.617 867.174 482.012C866.788 482.407 866.796 483.04 867.191 483.426L873.633 489.712ZM873 462.012L873.331 489.008L875.331 488.984L875 461.988L873 462.012Z" fill="black"/>
<path d="M961 562.988C960.993 562.435 960.54 561.993 959.988 562C959.435 562.007 958.993 562.46 959 563.012L961 562.988ZM959.633 590.712C960.028 591.097 960.661 591.09 961.047 590.694L967.332 584.253C967.718 583.858 967.71 583.224 967.315 582.839C966.92 582.453 966.286 582.461 965.901 582.856L960.314 588.582L954.588 582.995C954.193 582.609 953.559 582.617 953.174 583.012C952.788 583.407 952.796 584.04 953.191 584.426L959.633 590.712ZM959 563.012L959.331 590.008L961.331 589.984L961 562.988L959 563.012Z" fill="black"/>
<path d="M1214 562.988C1213.99 562.435 1213.54 561.993 1212.99 562C1212.44 562.007 1211.99 562.46 1212 563.012L1214 562.988ZM1212.63 590.712C1213.03 591.097 1213.66 591.09 1214.05 590.694L1220.33 584.253C1220.72 583.858 1220.71 583.224 1220.31 582.839C1219.92 582.453 1219.29 582.461 1218.9 582.856L1213.31 588.582L1207.59 582.995C1207.19 582.609 1206.56 582.617 1206.17 583.012C1205.79 583.407 1205.8 584.04 1206.19 584.426L1212.63 590.712ZM1212 563.012L1212.33 590.008L1214.33 589.984L1214 562.988L1212 563.012Z" fill="black"/>
<path d="M1566 561.988C1565.99 561.435 1565.54 560.993 1564.99 561C1564.44 561.007 1563.99 561.46 1564 562.012L1566 561.988ZM1564.63 589.712C1565.03 590.097 1565.66 590.09 1566.05 589.694L1572.33 583.253C1572.72 582.858 1572.71 582.224 1572.31 581.839C1571.92 581.453 1571.29 581.461 1570.9 581.856L1565.31 587.582L1559.59 581.995C1559.19 581.609 1558.56 581.617 1558.17 582.012C1557.79 582.407 1557.8 583.04 1558.19 583.426L1564.63 589.712ZM1564 562.012L1564.33 589.008L1566.33 588.984L1566 561.988L1564 562.012Z" fill="black"/>
<path d="M1569 653.988C1568.99 653.435 1568.54 652.993 1567.99 653C1567.44 653.007 1566.99 653.46 1567 654.012L1569 653.988ZM1567.63 681.712C1568.03 682.097 1568.66 682.09 1569.05 681.694L1575.33 675.253C1575.72 674.858 1575.71 674.224 1575.31 673.839C1574.92 673.453 1574.29 673.461 1573.9 673.856L1568.31 679.582L1562.59 673.995C1562.19 673.609 1561.56 673.617 1561.17 674.012C1560.79 674.407 1560.8 675.04 1561.19 675.426L1567.63 681.712ZM1567 654.012L1567.33 681.008L1569.33 680.984L1569 653.988L1567 654.012Z" fill="black"/>
<path d="M1569 653.988C1568.99 653.435 1568.54 652.993 1567.99 653C1567.44 653.007 1566.99 653.46 1567 654.012L1569 653.988ZM1567.63 681.712C1568.03 682.097 1568.66 682.09 1569.05 681.694L1575.33 675.253C1575.72 674.858 1575.71 674.224 1575.31 673.839C1574.92 673.453 1574.29 673.461 1573.9 673.856L1568.31 679.582L1562.59 673.995C1562.19 673.609 1561.56 673.617 1561.17 674.012C1560.79 674.407 1560.8 675.04 1561.19 675.426L1567.63 681.712ZM1567 654.012L1567.33 681.008L1569.33 680.984L1569 653.988L1567 654.012Z" fill="black"/>
<path d="M1214 653.988C1213.99 653.435 1213.54 652.993 1212.99 653C1212.44 653.007 1211.99 653.46 1212 654.012L1214 653.988ZM1212.63 681.712C1213.03 682.097 1213.66 682.09 1214.05 681.694L1220.33 675.253C1220.72 674.858 1220.71 674.224 1220.31 673.839C1219.92 673.453 1219.29 673.461 1218.9 673.856L1213.31 679.582L1207.59 673.995C1207.19 673.609 1206.56 673.617 1206.17 674.012C1205.79 674.407 1205.8 675.04 1206.19 675.426L1212.63 681.712ZM1212 654.012L1212.33 681.008L1214.33 680.984L1214 653.988L1212 654.012Z" fill="black"/>
<path d="M1214 744.986C1213.99 744.434 1213.54 743.992 1212.99 744C1212.43 744.008 1211.99 744.462 1212 745.014L1214 744.986ZM1212.63 769.713C1213.03 770.098 1213.66 770.089 1214.05 769.693L1220.32 763.242C1220.71 762.846 1220.7 762.213 1220.3 761.828C1219.91 761.443 1219.27 761.452 1218.89 761.848L1213.31 767.582L1207.58 762.004C1207.18 761.618 1206.55 761.627 1206.16 762.023C1205.78 762.419 1205.79 763.052 1206.18 763.437L1212.63 769.713ZM1212 745.014L1212.33 769.01L1214.33 768.982L1214 744.986L1212 745.014Z" fill="black"/>
<path d="M1569 745.986C1568.99 745.434 1568.54 744.992 1567.99 745C1567.43 745.008 1566.99 745.462 1567 746.014L1569 745.986ZM1567.63 770.713C1568.03 771.098 1568.66 771.089 1569.05 770.693L1575.32 764.242C1575.71 763.846 1575.7 763.213 1575.3 762.828C1574.91 762.443 1574.27 762.452 1573.89 762.848L1568.31 768.582L1562.58 763.004C1562.18 762.618 1561.55 762.627 1561.16 763.023C1560.78 763.419 1560.79 764.052 1561.18 764.437L1567.63 770.713ZM1567 746.014L1567.33 770.01L1569.33 769.982L1569 745.986L1567 746.014Z" fill="black"/>
<path d="M1214 824.986C1213.99 824.434 1213.54 823.992 1212.99 824C1212.43 824.008 1211.99 824.462 1212 825.014L1214 824.986ZM1212.63 849.713C1213.03 850.098 1213.66 850.089 1214.05 849.693L1220.32 843.242C1220.71 842.846 1220.7 842.213 1220.3 841.828C1219.91 841.443 1219.27 841.452 1218.89 841.848L1213.31 847.582L1207.58 842.004C1207.18 841.618 1206.55 841.627 1206.16 842.023C1205.78 842.419 1205.79 843.052 1206.18 843.437L1212.63 849.713ZM1212 825.014L1212.33 849.01L1214.33 848.982L1214 824.986L1212 825.014Z" fill="black"/>
<path d="M1214 824.986C1213.99 824.434 1213.54 823.992 1212.99 824C1212.43 824.008 1211.99 824.462 1212 825.014L1214 824.986ZM1212.63 849.713C1213.03 850.098 1213.66 850.089 1214.05 849.693L1220.32 843.242C1220.71 842.846 1220.7 842.213 1220.3 841.828C1219.91 841.443 1219.27 841.452 1218.89 841.848L1213.31 847.582L1207.58 842.004C1207.18 841.618 1206.55 841.627 1206.16 842.023C1205.78 842.419 1205.79 843.052 1206.18 843.437L1212.63 849.713ZM1212 825.014L1212.33 849.01L1214.33 848.982L1214 824.986L1212 825.014Z" fill="black"/>
<path d="M1137 915.985C1136.99 915.433 1136.54 914.992 1135.98 915C1135.43 915.008 1134.99 915.463 1135 916.015L1137 915.985ZM1135.63 938.714C1136.03 939.098 1136.66 939.089 1137.05 938.692L1143.32 932.233C1143.7 931.837 1143.69 931.204 1143.29 930.819C1142.9 930.435 1142.27 930.444 1141.88 930.841L1136.31 936.582L1130.57 931.011C1130.17 930.626 1129.54 930.636 1129.15 931.032C1128.77 931.428 1128.78 932.061 1129.18 932.446L1135.63 938.714ZM1135 916.015L1135.33 938.011L1137.33 937.981L1137 915.985L1135 916.015Z" fill="black"/>
<path d="M1296 915.985C1295.99 915.433 1295.54 914.992 1294.98 915C1294.43 915.008 1293.99 915.463 1294 916.015L1296 915.985ZM1294.63 938.714C1295.03 939.098 1295.66 939.089 1296.05 938.692L1302.32 932.233C1302.7 931.837 1302.69 931.204 1302.29 930.819C1301.9 930.435 1301.27 930.444 1300.88 930.841L1295.31 936.582L1289.57 931.011C1289.17 930.626 1288.54 930.636 1288.15 931.032C1287.77 931.428 1287.78 932.061 1288.18 932.446L1294.63 938.714ZM1294 916.015L1294.33 938.011L1296.33 937.981L1296 915.985L1294 916.015Z" fill="black"/>
<path d="M1364 997.985C1363.99 997.433 1363.54 996.992 1362.98 997C1362.43 997.008 1361.99 997.463 1362 998.015L1364 997.985ZM1362.63 1020.71C1363.03 1021.1 1363.66 1021.09 1364.05 1020.69L1370.32 1014.23C1370.7 1013.84 1370.69 1013.2 1370.29 1012.82C1369.9 1012.43 1369.27 1012.44 1368.88 1012.84L1363.31 1018.58L1357.57 1013.01C1357.17 1012.63 1356.54 1012.64 1356.15 1013.03C1355.77 1013.43 1355.78 1014.06 1356.18 1014.45L1362.63 1020.71ZM1362 998.015L1362.33 1020.01L1364.33 1019.98L1364 997.985L1362 998.015Z" fill="black"/>
<path d="M1215 997.985C1214.99 997.433 1214.54 996.992 1213.98 997C1213.43 997.008 1212.99 997.463 1213 998.015L1215 997.985ZM1213.63 1020.71C1214.03 1021.1 1214.66 1021.09 1215.05 1020.69L1221.32 1014.23C1221.7 1013.84 1221.69 1013.2 1221.29 1012.82C1220.9 1012.43 1220.27 1012.44 1219.88 1012.84L1214.31 1018.58L1208.57 1013.01C1208.17 1012.63 1207.54 1012.64 1207.15 1013.03C1206.77 1013.43 1206.78 1014.06 1207.18 1014.45L1213.63 1020.71ZM1213 998.015L1213.33 1020.01L1215.33 1019.98L1215 997.985L1213 998.015Z" fill="black"/>
<path d="M1489 832.979C1488.99 832.427 1488.53 831.989 1487.98 832C1487.43 832.012 1486.99 832.469 1487 833.021L1489 832.979ZM1487.64 849.717C1488.04 850.1 1488.67 850.087 1489.05 849.688L1495.28 843.194C1495.67 842.795 1495.65 842.162 1495.25 841.78C1494.86 841.398 1494.22 841.411 1493.84 841.809L1488.3 847.582L1482.53 842.043C1482.13 841.661 1481.5 841.674 1481.12 842.073C1480.73 842.471 1480.75 843.104 1481.14 843.487L1487.64 849.717ZM1487 833.021L1487.33 849.017L1489.33 848.975L1489 832.979L1487 833.021Z" fill="black"/>
<path d="M1660 832.979C1659.99 832.427 1659.53 831.989 1658.98 832C1658.43 832.012 1657.99 832.469 1658 833.021L1660 832.979ZM1658.64 849.717C1659.04 850.1 1659.67 850.087 1660.05 849.688L1666.28 843.194C1666.67 842.795 1666.65 842.162 1666.25 841.78C1665.86 841.398 1665.22 841.411 1664.84 841.809L1659.3 847.582L1653.53 842.043C1653.13 841.661 1652.5 841.674 1652.12 842.073C1651.73 842.471 1651.75 843.104 1652.14 843.487L1658.64 849.717ZM1658 833.021L1658.33 849.017L1660.33 848.975L1660 832.979L1658 833.021Z" fill="black"/>
<path d="M611 562.988C610.993 562.435 610.54 561.993 609.988 562C609.435 562.007 608.993 562.46 609 563.012L611 562.988ZM609.633 590.712C610.028 591.097 610.661 591.09 611.047 590.694L617.332 584.253C617.718 583.858 617.71 583.224 617.315 582.839C616.92 582.453 616.286 582.461 615.901 582.856L610.314 588.582L604.588 582.995C604.193 582.609 603.559 582.617 603.174 583.012C602.788 583.407 602.796 584.04 603.191 584.426L609.633 590.712ZM609 563.012L609.331 590.008L611.331 589.984L611 562.988L609 563.012Z" fill="black"/>
<path d="M784 562.988C783.993 562.435 783.54 561.993 782.988 562C782.435 562.007 781.993 562.46 782 563.012L784 562.988ZM782.633 590.712C783.028 591.097 783.661 591.09 784.047 590.694L790.332 584.253C790.718 583.858 790.71 583.224 790.315 582.839C789.92 582.453 789.286 582.461 788.901 582.856L783.314 588.582L777.588 582.995C777.193 582.609 776.559 582.617 776.174 583.012C775.788 583.407 775.796 584.04 776.191 584.426L782.633 590.712ZM782 563.012L782.331 590.008L784.331 589.984L784 562.988L782 563.012Z" fill="black"/>
<path d="M784 653.988C783.993 653.435 783.54 652.993 782.988 653C782.435 653.007 781.993 653.46 782 654.012L784 653.988ZM782.633 681.712C783.028 682.097 783.661 682.09 784.047 681.694L790.332 675.253C790.718 674.858 790.71 674.224 790.315 673.839C789.92 673.453 789.286 673.461 788.901 673.856L783.314 679.582L777.588 673.995C777.193 673.609 776.559 673.617 776.174 674.012C775.788 674.407 775.796 675.04 776.191 675.426L782.633 681.712ZM782 654.012L782.331 681.008L784.331 680.984L784 653.988L782 654.012Z" fill="black"/>
<path d="M441 562.988C440.993 562.435 440.54 561.993 439.988 562C439.435 562.007 438.993 562.46 439 563.012L441 562.988ZM439.633 590.712C440.028 591.097 440.661 591.09 441.047 590.694L447.332 584.253C447.718 583.858 447.71 583.224 447.315 582.839C446.92 582.453 446.286 582.461 445.901 582.856L440.314 588.582L434.588 582.995C434.193 582.609 433.559 582.617 433.174 583.012C432.788 583.407 432.796 584.04 433.191 584.426L439.633 590.712ZM439 563.012L439.331 590.008L441.331 589.984L441 562.988L439 563.012Z" fill="black"/>
<path d="M441 562.988C440.993 562.435 440.54 561.993 439.988 562C439.435 562.007 438.993 562.46 439 563.012L441 562.988ZM439.633 590.712C440.028 591.097 440.661 591.09 441.047 590.694L447.332 584.253C447.718 583.858 447.71 583.224 447.315 582.839C446.92 582.453 446.286 582.461 445.901 582.856L440.314 588.582L434.588 582.995C434.193 582.609 433.559 582.617 433.174 583.012C432.788 583.407 432.796 584.04 433.191 584.426L439.633 590.712ZM439 563.012L439.331 590.008L441.331 589.984L441 562.988L439 563.012Z" fill="black"/>
<path d="M170 666.988C169.993 666.435 169.54 665.993 168.988 666C168.435 666.007 167.993 666.46 168 667.012L170 666.988ZM168.633 694.712C169.028 695.097 169.661 695.09 170.047 694.694L176.332 688.253C176.718 687.858 176.71 687.224 176.315 686.839C175.92 686.453 175.286 686.461 174.901 686.856L169.314 692.582L163.588 686.995C163.193 686.609 162.559 686.617 162.174 687.012C161.788 687.407 161.796 688.04 162.191 688.426L168.633 694.712ZM168 667.012L168.331 694.008L170.331 693.984L170 666.988L168 667.012Z" fill="black"/>
<path d="M349 666.988C348.993 666.435 348.54 665.993 347.988 666C347.435 666.007 346.993 666.46 347 667.012L349 666.988ZM347.633 694.712C348.028 695.097 348.661 695.09 349.047 694.694L355.332 688.253C355.718 687.858 355.71 687.224 355.315 686.839C354.92 686.453 354.286 686.461 353.901 686.856L348.314 692.582L342.588 686.995C342.193 686.609 341.559 686.617 341.174 687.012C340.788 687.407 340.796 688.04 341.191 688.426L347.633 694.712ZM347 667.012L347.331 694.008L349.331 693.984L349 666.988L347 667.012Z" fill="black"/>
<path d="M262 562.988C261.993 562.435 261.54 561.993 260.988 562C260.435 562.007 259.993 562.46 260 563.012L262 562.988ZM260.633 590.712C261.028 591.097 261.661 591.09 262.047 590.694L268.332 584.253C268.718 583.858 268.71 583.224 268.315 582.839C267.92 582.453 267.286 582.461 266.901 582.856L261.314 588.582L255.588 582.995C255.193 582.609 254.559 582.617 254.174 583.012C253.788 583.407 253.796 584.04 254.191 584.426L260.633 590.712ZM260 563.012L260.331 590.008L262.331 589.984L262 562.988L260 563.012Z" fill="black"/>
<path d="M590 290.988C589.993 290.435 589.54 289.993 588.988 290C588.435 290.007 587.993 290.46 588 291.012L590 290.988ZM588.633 318.712C589.028 319.097 589.661 319.09 590.047 318.694L596.332 312.253C596.718 311.858 596.71 311.224 596.315 310.839C595.92 310.453 595.286 310.461 594.901 310.856L589.314 316.582L583.588 310.995C583.193 310.609 582.559 310.617 582.174 311.012C581.788 311.407 581.796 312.04 582.191 312.426L588.633 318.712ZM588 291.012L588.331 318.008L590.331 317.984L590 290.988L588 291.012Z" fill="black"/>
<path d="M757 290.988C756.993 290.435 756.54 289.993 755.988 290C755.435 290.007 754.993 290.46 755 291.012L757 290.988ZM755.633 318.712C756.028 319.097 756.661 319.09 757.047 318.694L763.332 312.253C763.718 311.858 763.71 311.224 763.315 310.839C762.92 310.453 762.286 310.461 761.901 310.856L756.314 316.582L750.588 310.995C750.193 310.609 749.559 310.617 749.174 311.012C748.788 311.407 748.796 312.04 749.191 312.426L755.633 318.712ZM755 291.012L755.331 318.008L757.331 317.984L757 290.988L755 291.012Z" fill="black"/>
<path d="M1161 290.988C1160.99 290.435 1160.54 289.993 1159.99 290C1159.44 290.007 1158.99 290.46 1159 291.012L1161 290.988ZM1159.63 318.712C1160.03 319.097 1160.66 319.09 1161.05 318.694L1167.33 312.253C1167.72 311.858 1167.71 311.224 1167.31 310.839C1166.92 310.453 1166.29 310.461 1165.9 310.856L1160.31 316.582L1154.59 310.995C1154.19 310.609 1153.56 310.617 1153.17 311.012C1152.79 311.407 1152.8 312.04 1153.19 312.426L1159.63 318.712ZM1159 291.012L1159.33 318.008L1161.33 317.984L1161 290.988L1159 291.012Z" fill="black"/>
<path d="M873.293 176.707C873.683 177.098 874.317 177.098 874.707 176.707L881.071 170.343C881.462 169.953 881.462 169.319 881.071 168.929C880.681 168.538 880.047 168.538 879.657 168.929L874 174.586L868.343 168.929C867.953 168.538 867.319 168.538 866.929 168.929C866.538 169.319 866.538 169.953 866.929 170.343L873.293 176.707ZM873 149V176H875V149H873Z" fill="black"/>
<line x1="807" y1="291" x2="588" y2="291" stroke="black" stroke-width="2"/>
<line x1="1566" y1="561" x2="260" y2="561" stroke="black" stroke-width="2"/>
<line x1="1161" y1="291" x2="942" y2="291" stroke="black" stroke-width="2"/>
<line x1="992" y1="461" x2="874" y2="461" stroke="black" stroke-width="2"/>
<line x1="992" y1="461" x2="874" y2="461" stroke="black" stroke-width="2"/>
<line x1="349" y1="666" x2="168" y2="666" stroke="black" stroke-width="2"/>
<line x1="1364" y1="997" x2="1213" y2="997" stroke="black" stroke-width="2"/>
<line x1="1660" y1="832" x2="1487" y2="832" stroke="black" stroke-width="2"/>
<line x1="1660" y1="832" x2="1487" y2="832" stroke="black" stroke-width="2"/>
<line x1="1295" y1="916" x2="1135" y2="916" stroke="black" stroke-width="2"/>
<line x1="1296" y1="991" x2="1296" y2="996" stroke="black" stroke-width="2"/>
<line x1="1214" y1="902" x2="1214" y2="915" stroke="black" stroke-width="2"/>
<line x1="1569" y1="823" x2="1569" y2="831" stroke="black" stroke-width="2"/>
<line x1="992" y1="461" x2="874" y2="461" stroke="black" stroke-width="2"/>
<line x1="259" y1="642" x2="259" y2="665" stroke="black" stroke-width="2"/>
<line x1="871" y1="540" x2="871" y2="560" stroke="black" stroke-width="2"/>
<line x1="991" y1="452" x2="991" y2="460" stroke="black" stroke-width="2"/>
</svg>
